<svg width="531" height="208" viewBox="0 0 531 208" fill="none" xmlns="http://www.w3.org/2000/svg">
<path d="M33.4493 149.199C32.3457 148.793 30.61 148.49 29.1875 148.345C23.1344 147.972 20.7578 149.125 16.3388 151.997C8.80669 156.078 -0.783313 176.011 0.16832 176.652C0.168348 176.652 0.168348 176.652 0.168376 176.652C0.176504 176.655 0.18558 176.657 0.195667 176.656C0.385965 176.641 1.35205 174.934 1.64614 174.768C1.93988 174.605 2.99352 175.26 4.16945 172.981C5.66336 169.772 10.2761 161.672 11.5505 160.396C12.3636 159.374 13.6527 158.053 14.8067 156.963C18.8585 153.28 21.5384 151.715 26.2162 151.548C28.0719 151.266 30.0164 151.368 31.9409 151.782C34.3801 152.521 37.9904 154.353 39.2404 155.259C40.3099 155.996 40.9081 156.599 41.9422 157.419C43.1343 158.367 45.036 159.8 47.0511 161.793C50.2987 165.056 50.5925 165.964 52.4066 168.035C54.3072 170.228 57.3155 173.54 59.5402 176.498C59.8023 176.882 60.0636 177.266 60.3253 177.652C60.0518 177.445 59.7786 177.238 59.5053 177.032C60.641 178.507 61.2755 179.029 62.3408 180.365C63.5895 181.932 64.1153 182.859 64.9552 183.916C65.6402 184.778 66.691 185.89 67.5919 187.025C68.9038 188.674 68.4565 188.417 69.1521 189.328C69.4144 189.735 74.7754 196.209 75.1526 196.527C77.6514 199.223 78.0761 199.275 80.2233 201.23C82.9244 203.571 85.7771 205.899 89.6073 206.953C93.5232 208.171 97.9617 206.115 100.256 203.289C100.947 202.517 101.607 201.736 102.238 200.951C104.346 198.334 106.275 195.417 107.95 192.561C104.703 196.664 110.141 186.551 108.851 190.764C110.562 187.515 112.015 185.357 113.57 182.274C114.572 180.282 115.143 178.844 116.607 176.035C119.177 171.025 122.585 166.02 122.856 164.298C126.412 158.846 130.086 154.547 132.232 153.493C133.414 152.369 136.492 149.493 138.085 148.533C138.811 148.043 142.062 146.09 145.736 144.865C149.403 143.577 153.286 143.016 154.419 142.887C156.604 142.589 160.513 142.447 162.397 142.571C164.799 142.712 166.378 143.434 170.599 143.149C175.525 143.88 177.262 144.217 181.673 145.109C182.485 145.28 182.606 145.191 183.085 145.306C183.553 145.42 184.178 145.594 184.902 145.802C185.694 146.03 186.595 146.285 187.52 146.521C190.419 147.258 192.107 147.393 191.702 147.685C193.595 148.197 195.411 148.674 197.366 149.166C198.06 149.244 198.752 149.318 199.442 149.391C200.454 149.686 201.462 149.976 202.468 150.261C201.387 149.5 208.466 151.21 206.089 151.065C209.897 151.679 213.63 152.212 217.37 152.679C216.958 152.017 225.651 153.808 224.858 154.017C225.284 154.072 225.71 154.127 226.135 154.18C229.974 154.495 233.392 155.01 238.028 155.3C242.694 155.572 242.24 155.453 243.659 155.269C244.742 155.356 245.782 155.435 246.903 155.511C252.658 156.545 251.569 155.256 261.409 155.922C264.496 155.452 272.196 155.526 277.352 155.294C277.944 155.271 277.962 155.365 278.747 155.337C280.611 155.288 285.643 154.678 285.473 154.994C287.161 154.728 288.818 154.446 290.542 154.134C291.95 154.009 293.343 153.871 294.72 153.721C294.727 153.817 294.734 153.912 294.742 154.008C297.474 153.281 301.886 152.625 303.998 152.112C304.427 152.009 304.499 151.864 305.825 151.55C307.388 151.182 310.182 150.59 312.059 150.076C312.811 150.04 313.559 150 314.303 149.957C317.524 149.187 318.645 148.443 320.507 147.85C320.824 147.784 327.064 145.747 327.358 145.612C330.01 144.672 329.503 145.414 337.118 142.035C338.469 141.412 339.457 140.821 340.7 140.207C342.866 139.213 349.167 135.924 349.781 135.752C352.119 134.072 358.484 129.508 360.028 127.855C360.531 127.36 360.562 127.114 362.027 125.622C363.261 124.419 366.333 121.128 367.482 119.25C368.777 117.229 368.966 116.421 369.437 115.445C369.849 114.545 370.341 113.74 370.758 112.406C371.408 110.309 371.628 108.091 371.387 106.099C371.162 104.193 370.885 102.587 370.565 100.973C369.627 96.4142 368.41 91.9061 364.938 88.902C364.033 88.2264 363.035 87.7504 361.949 87.3453C352.198 84.5833 343.69 91.2502 336.87 96.8758L338.879 97.2133C336.607 93.2778 333.954 89.7255 330.868 86.69C328.764 84.5842 324.274 81.1299 319.856 80.8815C315.485 80.614 312.902 82.6664 314.677 81.1964C313.298 81.4119 308.616 84.8393 306.166 89.2596C303.923 92.8513 303.557 96.8217 303.447 98.1124C303.208 101.073 303.295 103.429 303.672 105.713C304.997 112.529 306.989 117.056 311.183 124.211C312.294 126.054 313.474 128.03 314.24 129.049C315.161 130.279 316.322 131.471 317.602 132.96C320.608 136.618 326.956 142.684 330.596 145.361C331.248 145.86 331.584 145.924 332.545 146.58C336.315 149.178 340.705 151.806 339.675 151.766C340.733 152.342 341.771 152.906 342.812 153.466C346.83 155.626 350.844 157.438 355.02 158.715C366.182 162.739 387.372 162.437 397.231 160.71C403.503 159.77 403.395 160.135 412.355 157.683C414.326 157.115 416.294 156.498 418.681 155.707C424.188 153.879 429.097 151.603 433.38 150.384C439.356 147.788 444.034 145.644 448.115 143.072C448.664 142.905 449.212 142.734 449.761 142.561C450.464 142.194 451.166 141.822 451.866 141.446C452.038 141.242 452.209 141.039 452.38 140.834C457.367 138.105 463.722 134.67 467.715 131.964C474.605 127.709 490.64 114.332 495.683 108.557C498.485 105.585 498.766 105.548 500.02 103.547C500.651 102.895 501.275 102.239 501.892 101.579C502.333 101.217 502.78 100.843 503.224 100.468C506.647 96.4921 510.279 91.4703 513.029 87.3293C518.199 79.8724 524.594 67.6686 526.961 58.7926C527.603 56.5791 528.146 53.7598 528.624 51.5757C529.297 48.3849 529.787 47.6591 530.338 43.5309C531.493 36.4239 530.449 22.9553 528.788 16.4421C528.363 14.4657 528.235 13.5089 527.896 12.1958C526.41 6.60705 524.685 2.1355 522.446 -2.99801C519.464 -8.31471 519.324 -7.47208 518.083 -8.9061C517.157 -9.96304 514.28 -13.2444 513.699 -13.6079C513.308 -13.8666 513.988 -12.3879 513.486 -12.7821C517.173 -6.66903 518.548 -4.36157 521.213 0.770336C525.435 10.3199 527.915 20.5933 528.219 31.0666C528.36 32.0056 528.484 32.9511 528.591 33.9115C528.591 33.9115 528.592 33.9116 528.592 33.9116C528.676 37.9544 528.208 39.6334 527.936 41.7742C527.086 63.0845 504.795 99.1276 486.738 113.621C483.216 117.094 470.336 126.828 467.533 128.746C466.832 129.281 466.726 129.561 465.95 130.089C458.924 134.654 451.593 138.765 444.058 142.368C428.721 150.223 411.623 155.837 394.446 158.148C377.398 160.42 359.13 159.358 344.194 150.995C323.132 138.914 299.228 114.643 308.566 90.7895C310.208 88.2124 312.246 85.7848 314.697 84.4087C322.329 79.6583 331.537 90.3187 335.694 97.1392C336.012 97.646 336.288 98.0904 336.526 98.4885C336.988 99.3509 337.953 99.5077 338.678 98.8499C340.457 97.2013 341.731 95.9264 345.093 93.9388C345.095 93.8492 345.098 93.7594 345.1 93.6696C348.639 91.6286 351.082 90.4427 355.36 89.5718C357.131 89.2308 360.574 89.1127 363.02 91.0477C365.49 92.8572 366.794 96.1473 367.304 97.6231C367.852 99.2975 367.782 98.5658 368.194 100.196C368.523 101.577 368.867 103.801 369.037 106.31C369.196 108.404 368.68 110.681 368.073 112.359C367.09 115.602 363.648 120.546 361.747 122.435C355.031 129.556 345.433 135.122 335.931 139.462C333.228 140.71 329.873 142.219 328.971 142.548C327.238 143.19 326.747 143.175 325.599 143.557C319.828 145.527 310.601 148.225 304.775 149.385C285.602 153.405 264.755 154.295 245.227 153.126C232.919 152.566 212.607 149.626 201.445 147.299C199.027 146.822 199.63 147.146 197.591 146.702C195.305 146.199 194.199 145.807 193.153 145.554C191.159 145.068 188.477 144.397 185.467 143.601C177.755 141.46 167.653 140.006 162.507 140.111C161.122 140.107 160.157 140.272 159.368 140.291C158.967 140.301 157.98 140.225 156.692 140.304C145.304 141.097 136.713 144.679 128.748 152.706C115.688 166.068 110.426 186.92 97.9462 201.278C95.8891 203.722 93.1815 204.893 90.3593 204.166C86.1705 203 83.643 200.717 83.0931 200.372C81.9232 199.365 81.443 198.709 79.3537 196.525C72.5591 189.312 64.4591 178.517 58.3524 171.112C55.3871 167.445 51.2172 162.359 47.7799 159.088C45.2201 156.316 37.6908 151.145 35.9998 150.558C35.0833 150.065 34.6628 149.646 33.4493 149.199ZM118.027 172.978C117.393 173.378 120.975 167.498 119.885 169.843C119.633 170.364 118.183 172.868 118.027 172.978ZM345.128 91.464C345.133 91.3458 345.138 91.2273 345.144 91.1087C345.965 90.6701 346.805 90.2524 347.654 89.8688C347.212 90.1594 346.783 90.4551 346.352 90.7627C345.938 90.9915 345.54 91.2196 345.128 91.464Z" fill="url(#paint0_linear_293_1623)"/>
<defs>
<linearGradient id="paint0_linear_293_1623" x1="-75.3269" y1="273.674" x2="479.672" y2="20.6206" gradientUnits="userSpaceOnUse">
<stop stop-color="#EBF3FE"/>
<stop offset="0.596269" stop-color="#FF9E84"/>
<stop offset="1" stop-color="#EBF3FE"/>
</linearGradient>
</defs>
</svg>
