<svg width="445" height="203" viewBox="0 0 445 203" fill="none" xmlns="http://www.w3.org/2000/svg">
<path d="M92.7178 2.01999C94.7017 2.01999 96.0291 2.28288 96.8369 2.80222C97.4969 3.22653 98.0185 3.95805 98.0186 5.6196C98.0185 5.61955 98.0178 5.65312 98.0068 5.72995C97.9959 5.80646 97.9772 5.90864 97.9482 6.03854C97.89 6.29965 97.798 6.63749 97.668 7.05612C97.408 7.89319 97.0161 8.98881 96.498 10.3247C95.4632 12.993 93.9525 16.5491 92.0605 20.7807C88.2784 29.2402 82.9966 40.3444 77.0107 52.3374C65.0308 76.3398 50.2742 103.813 39.1064 120.734L37.7598 122.774L40.1885 123.05C47.6505 123.898 55.3089 125.163 63.1035 126.234C70.8566 127.299 78.6733 128.16 86.2578 128.16H86.9385C88.0993 128.16 89.1001 128.161 89.9307 128.078C90.7876 127.991 91.5973 127.805 92.3506 127.346C93.1005 126.89 93.661 126.245 94.167 125.477C94.6619 124.726 95.1644 123.761 95.7529 122.584L123.631 68.186L123.632 68.187C129.365 57.0569 136.565 44.3615 141.677 33.4565L141.687 33.4341L141.697 33.4106C142 32.7041 142.544 32.2669 143.358 31.9848C144.22 31.6866 145.291 31.6001 146.438 31.6001C147.457 31.6002 148.621 31.9957 149.527 32.5883C149.974 32.8802 150.304 33.1845 150.507 33.4497C150.64 33.6242 150.687 33.7423 150.705 33.8003C150.695 33.8378 150.681 33.895 150.656 33.9731C150.584 34.1984 150.468 34.5115 150.304 34.9184C149.977 35.7295 149.489 36.8348 148.855 38.2016C147.591 40.9309 145.78 44.6406 143.599 49.0063C139.237 57.7347 133.419 69.0418 127.597 80.2827C121.78 91.5125 115.948 102.697 111.584 111.133C109.4 115.354 107.577 118.9 106.3 121.434C105.662 122.7 105.156 123.722 104.808 124.453C104.634 124.816 104.493 125.121 104.394 125.354C104.345 125.468 104.297 125.584 104.26 125.689C104.241 125.741 104.218 125.809 104.198 125.884C104.187 125.927 104.138 126.102 104.138 126.32C104.138 127.47 104.971 128.16 105.539 128.502C106.157 128.875 106.942 129.142 107.742 129.346C109.366 129.761 111.487 130.023 113.591 130.195C117.823 130.54 122.297 130.54 123.318 130.54C125.429 130.54 127.615 130.364 129.688 130.195C131.787 130.023 133.762 129.86 135.559 129.86C136.255 129.86 137.485 129.864 138.524 130.049C138.978 130.13 139.295 130.232 139.486 130.324C139.392 131.559 138.676 133.863 137.155 135.927C135.558 138.096 133.241 139.78 130.118 139.78C125.45 139.78 120.772 139.28 115.691 138.768C110.632 138.258 105.21 137.74 99.1777 137.74H98.1875L97.7988 138.651L75.0186 192.031L75.0137 192.043C74.1294 194.166 73.2688 196.426 71.9922 198.206C70.7615 199.921 69.2926 200.98 67.2178 200.98C65.8776 200.98 64.668 200.677 63.8428 200.126C63.087 199.623 62.5977 198.888 62.5977 197.72C62.5977 196.616 62.8857 195.051 63.4648 193.057C64.0374 191.086 64.8665 188.788 65.8848 186.251C67.9215 181.178 70.6762 175.244 73.5449 169.209C76.4052 163.192 79.3823 157.067 81.8281 151.674C84.2609 146.31 86.2322 141.536 87.0352 138.235L87.4121 136.685L85.8428 136.404C72.5231 134.013 47.6116 131.28 33.8984 131.28C31.4817 131.28 29.2965 132.861 27.3896 134.665C25.4392 136.512 23.3917 138.987 21.3418 141.306C19.2456 143.678 17.0941 145.952 14.7959 147.634C12.5064 149.31 10.1772 150.32 7.71777 150.32C5.79255 150.32 4.39598 149.989 3.50488 149.335C2.7085 148.751 2.07812 147.73 2.07812 145.7C2.07827 141.761 4.73592 137.803 8.60938 134.221C12.4296 130.689 17.1495 127.785 20.6543 125.949L20.6533 125.948C24.9069 123.736 26.9133 122.441 28.5146 120.646C29.2949 119.771 29.954 118.806 30.7197 117.66C31.4942 116.501 32.412 115.103 33.751 113.262L33.752 113.261C46.9366 95.1108 58.9728 70.9397 67.9932 50.729C72.5083 40.6125 76.2766 31.4671 79.0645 24.5346C81.5248 18.4166 83.1869 14.1127 83.9473 12.311L84.2178 11.6948C85.0792 9.96857 85.7322 8.42396 86.2959 7.15182C86.878 5.83817 87.3487 4.85443 87.875 4.09225C88.3781 3.36362 88.9019 2.88534 89.5742 2.56589C90.2687 2.2359 91.239 2.02002 92.7178 2.01999ZM255.685 10.1801C270.554 10.1802 280.685 15.6817 287.171 25.1665C293.724 34.7504 296.685 48.5908 296.685 65.4604C296.684 88.3783 285.43 122.352 267.091 150.622C248.714 178.949 223.606 200.98 196.185 200.98C181.34 200.98 171.204 195.243 164.707 185.498C158.144 175.652 155.185 161.548 155.185 144.68C155.185 121.764 166.437 88.0464 184.774 60.0337C203.147 31.9666 228.256 10.1801 255.685 10.1801ZM384.919 2.01999C386.903 2.01999 388.23 2.28288 389.038 2.80222C389.698 3.22656 390.219 3.95828 390.219 5.6196C390.219 5.61962 390.218 5.65314 390.207 5.72995C390.196 5.80646 390.177 5.90864 390.148 6.03854C390.09 6.29964 389.998 6.63753 389.868 7.05612C389.608 7.89318 389.217 8.98886 388.699 10.3247C387.664 12.993 386.154 16.549 384.262 20.7807C380.48 29.2402 375.198 40.3444 369.212 52.3374C357.232 76.3398 342.474 103.813 331.307 120.734L329.96 122.774L332.39 123.05C339.852 123.898 347.51 125.163 355.305 126.234C363.058 127.299 370.874 128.16 378.459 128.16H379.139C380.3 128.16 381.301 128.161 382.132 128.078C382.989 127.991 383.799 127.805 384.552 127.346C385.302 126.89 385.862 126.245 386.368 125.477C386.863 124.726 387.366 123.761 387.954 122.584L415.834 68.1841L415.833 68.1831C421.566 57.0538 428.766 44.3604 433.877 33.4565L433.888 33.4341L433.897 33.4106C434.2 32.7039 434.745 32.2669 435.56 31.9848C436.421 31.6866 437.491 31.6001 438.639 31.6001C439.657 31.6001 440.822 31.9956 441.729 32.5883C442.175 32.8801 442.504 33.1846 442.707 33.4497C442.841 33.6243 442.888 33.7424 442.906 33.8003C442.896 33.8378 442.881 33.8949 442.856 33.9731C442.784 34.1984 442.669 34.5117 442.505 34.9184C442.178 35.7295 441.69 36.8348 441.057 38.2016C439.792 40.9309 437.98 44.6405 435.799 49.0063C431.437 57.7347 425.619 69.0419 419.797 80.2827C413.98 91.5125 408.149 102.697 403.785 111.133C401.602 115.354 399.778 118.9 398.501 121.434C397.863 122.7 397.356 123.722 397.008 124.453C396.835 124.816 396.694 125.121 396.594 125.354C396.545 125.468 396.498 125.584 396.46 125.689C396.442 125.741 396.419 125.809 396.398 125.884C396.387 125.928 396.339 126.102 396.339 126.32C396.339 127.47 397.172 128.16 397.74 128.502C398.358 128.875 399.143 129.142 399.943 129.346C401.567 129.761 403.688 130.023 405.792 130.195C410.023 130.54 414.497 130.54 415.519 130.54C417.63 130.54 419.816 130.364 421.889 130.195C423.988 130.023 425.962 129.86 427.759 129.86C428.455 129.86 429.686 129.864 430.726 130.049C431.179 130.13 431.495 130.232 431.687 130.324C431.592 131.559 430.877 133.863 429.356 135.927C427.759 138.096 425.442 139.78 422.319 139.78C417.651 139.78 412.973 139.28 407.892 138.768C402.832 138.258 397.411 137.74 391.379 137.74H390.388L389.999 138.651L367.22 192.031H367.219L367.214 192.043C366.33 194.166 365.469 196.426 364.192 198.206C362.962 199.921 361.494 200.98 359.419 200.98C358.079 200.98 356.869 200.677 356.044 200.126C355.288 199.623 354.799 198.888 354.799 197.72C354.799 196.616 355.087 195.052 355.666 193.057C356.239 191.086 357.068 188.788 358.086 186.251C360.123 181.178 362.877 175.244 365.746 169.209C368.606 163.192 371.583 157.067 374.029 151.674C376.462 146.311 378.433 141.536 379.236 138.235L379.613 136.685L378.044 136.404C364.724 134.013 339.812 131.28 326.099 131.28C323.682 131.28 321.498 132.861 319.591 134.665C317.64 136.512 315.593 138.987 313.543 141.306C311.447 143.678 309.294 145.952 306.996 147.634C304.707 149.31 302.378 150.32 299.919 150.32C297.994 150.32 296.597 149.989 295.706 149.335C294.91 148.751 294.279 147.731 294.279 145.7C294.279 141.761 296.936 137.803 300.81 134.221C304.63 130.689 309.35 127.785 312.854 125.949L312.854 125.948C317.108 123.735 319.114 122.441 320.716 120.646C321.496 119.771 322.155 118.806 322.921 117.66C323.695 116.501 324.613 115.103 325.952 113.262V113.261C339.137 95.1108 351.173 70.9397 360.193 50.729C364.709 40.6125 368.478 31.4671 371.266 24.5346C373.726 18.4168 375.387 14.1128 376.147 12.311L376.418 11.6948C377.279 9.96847 377.933 8.42402 378.497 7.15182C379.079 5.83824 379.55 4.8544 380.076 4.09225C380.579 3.36389 381.102 2.88531 381.774 2.56589C382.469 2.23588 383.44 2.01999 384.919 2.01999ZM252.965 20.1001C241.373 20.1001 230.167 25.2536 219.942 33.6255C209.715 42 200.376 53.6666 192.474 66.9008C176.683 93.3472 166.465 126.336 166.465 152.5C166.465 163.284 167.907 173.256 172.657 180.56C177.494 187.998 185.587 192.42 198.225 192.42C207.965 192.42 218.276 187.653 228.178 179.808C238.102 171.945 247.758 160.881 256.216 148.011C273.118 122.293 285.404 89.116 285.404 59.3403C285.404 48.5366 283.786 38.7233 278.848 31.5844C273.83 24.3318 265.576 20.1002 252.965 20.1001Z" fill="#EA876B" stroke="#EBF3FE" stroke-width="3"/>
</svg>
