<svg width="163" height="200" viewBox="0 0 163 200" fill="none" xmlns="http://www.w3.org/2000/svg">
<path d="M54.6394 7.28304C54.95 7.47142 55.4982 7.53479 55.8861 7.74163C57.4716 8.60884 58.1264 8.92015 59.4581 9.91059C61.6771 11.23 65.7336 17.6007 66.812 17.1115C66.812 17.1115 66.812 17.1115 66.8121 17.1115C66.8236 17.1049 66.8349 17.0977 66.846 17.0897C67.058 16.9382 66.9542 16.1944 67.1498 15.9569C67.3449 15.7199 69.0137 14.8239 68.547 13.8778C67.9163 12.5164 65.2774 9.93776 64.6962 9.35286C64.3318 8.93453 63.9819 8.32695 63.4961 7.82252C61.8557 6.1617 60.8457 5.55285 59.3172 4.02578C58.484 3.79571 57.6106 3.59021 56.7689 3.44815C55.8632 2.85939 54.207 2.5574 53.6061 2.34849C53.1092 2.16743 52.8646 1.88948 52.3271 1.73023C51.7228 1.55179 50.7428 1.52365 49.6361 1.31056C47.8154 0.983211 47.5166 0.486346 46.3857 0.360918C45.1979 0.239504 43.4022 0.561098 41.8951 0.564072C41.7046 0.529953 41.5131 0.497653 41.3206 0.467151C41.4367 0.32503 41.5545 0.18357 41.6739 0.0427917C40.9124 0.0779497 40.626 0.382328 39.9413 0.505161C39.1343 0.655547 38.6741 0.507948 38.139 0.631686C37.6991 0.734626 37.1549 1.07378 36.5886 1.22196C35.7613 1.44361 35.8618 1.12316 35.4086 1.2085C35.2256 1.20458 31.9712 2.25477 31.8171 2.35887C30.484 2.93176 30.5151 3.35497 29.5236 3.89003C26.7271 5.42052 23.8854 6.95362 21.5073 8.72126C20.4684 9.48926 19.4316 10.4256 18.5383 11.3551C20.6727 10.6996 18.0009 14.3114 18.1178 12.0506C17.243 13.2135 16.2378 13.6643 15.3793 14.7289C14.8289 15.4196 14.5788 16.0343 13.7955 16.9927C12.3863 18.7056 10.501 20.3846 11.0703 21.5323C9.47075 23.5858 8.73996 25.7619 7.44963 26.1176C7.07633 26.68 6.81751 28.4946 6.58087 29.2034C6.29491 29.8469 4.516 34.9682 4.30607 35.8348C4.02938 36.6889 3.60042 38.1433 3.31752 38.8452C2.96649 39.7125 1.80222 40.1223 2.57597 42.0085C2.06021 43.8746 1.96375 44.5728 1.80719 46.3537C1.7805 46.6783 1.94855 46.7416 1.92 46.9288C1.86111 47.3142 1.63672 47.9575 1.53351 48.6544C1.36738 49.7759 1.67638 50.4644 1.12715 50.2805C0.95701 51.0227 0.798339 51.7742 0.651615 52.535C0.74163 52.8129 0.833613 53.0847 0.927303 53.352C0.78619 53.7446 0.648253 54.141 0.513606 54.5409C1.33804 54.0963 0.780621 56.9266 0.336409 55.9932C0.38153 56.4753 0.431433 56.9585 0.486124 57.4428C0.600131 58.4394 0.722165 59.429 0.852077 60.4118C1.76871 60.1977 1.0316 63.5887 0.525365 63.3221C0.531421 63.4874 0.537709 63.6526 0.544232 63.8177C0.842076 65.2567 0.698774 66.5644 0.969531 68.3151C1.24686 70.0947 1.33142 69.9167 1.79426 70.4262C1.80045 70.8447 1.80812 71.2625 1.81724 71.6795C0.840458 73.954 2.79999 73.3989 2.30615 77.1472C3.16103 78.2143 3.15578 81.23 3.2331 83.1737C3.24157 83.4009 3.10115 83.4264 3.10381 83.7306C3.10936 84.4768 3.59914 86.2867 3.13691 86.3007C3.37839 86.9198 3.61844 87.5091 3.87131 88.1461C3.88717 88.6924 3.90569 89.2376 3.92686 89.7818C3.78544 89.8067 3.64403 89.8316 3.50261 89.8564C4.18903 90.8296 4.35141 92.5214 4.64609 93.3076C4.7049 93.4638 4.90545 93.4566 5.07014 93.9443C5.2631 94.5143 5.45739 95.6095 5.68456 96.2821C5.53634 96.6026 5.38686 96.9148 5.24275 97.2456C5.4423 98.5403 6.12 98.8352 6.35663 99.5557C6.39474 99.6889 7.01296 102.089 7.04202 102.217C7.25321 103.287 6.67262 103.142 7.70314 106.109C7.89312 106.648 8.19658 107.034 8.36238 107.52C8.64887 108.382 9.17134 111.074 8.91182 111.394C9.69505 112.282 10.5416 115.041 10.9973 115.82C11.1313 116.049 11.4169 116 11.7736 116.721C12.0614 117.306 12.493 118.935 12.855 119.67C13.2383 120.451 13.5836 120.636 13.756 120.982C13.9191 121.31 13.8807 121.697 14.0879 122.149C14.7442 123.573 15.6472 124.738 16.1988 125.842C16.9992 127.442 17.2157 129.098 17.7009 130.535C17.9127 130.849 18.1975 131.116 18.3883 131.46C20.7383 135.714 23.7334 140.3 26.6271 144.16C27.9583 146.005 31.9954 149.929 30.0625 149.55C30.3338 150.317 34.3931 154.408 35.1294 155.182C35.8486 155.988 36.2477 156.777 36.8187 157.406C38.5673 159.317 39.9393 160.511 42.0237 162.834C42.5624 163.433 43.0094 164.239 43.3618 164.566C43.7878 164.961 44.4254 165.192 44.9884 165.684C46.3233 166.867 48.7642 169.103 50.1292 170.157C50.3764 170.349 50.6096 170.238 51.0013 170.463C52.5258 171.341 54.0382 172.535 53.3117 172.918C55.3296 173.942 56.773 175.48 58.4496 176.684C61.9717 179.281 68.8833 183.274 72.1168 185.29C74.1414 186.577 73.9545 186.881 77.2708 188.167C78.0083 188.448 78.7525 188.701 79.6475 189.024C81.7725 189.792 83.8901 190.011 85.1845 191.332C87.5419 192.067 89.3878 192.884 91.3214 192.878C91.4753 193.093 91.6301 193.308 91.7856 193.522C92.0712 193.623 92.3571 193.723 92.643 193.821C92.7784 193.713 92.9136 193.604 93.0485 193.495C95.1189 194.14 97.6076 195.502 99.3833 195.973C102.367 196.846 110.236 198.255 113.155 198.422C114.692 198.542 114.756 198.861 115.719 198.339C116.059 198.427 116.398 198.514 116.738 198.599C116.938 198.764 117.138 198.929 117.339 199.093C119.322 199.324 121.693 199.303 123.601 199.409C127.036 199.63 132.277 200.017 135.757 199.52C136.632 199.403 137.698 199.03 138.545 198.955C139.78 198.842 140.115 199.296 141.71 199.111C144.45 198.818 149.358 197.341 151.842 196.732C152.581 196.56 152.972 196.642 153.495 196.522C155.682 196.014 157.398 195.462 159.516 195.006C161.535 193.783 161.114 193.281 161.547 192.47C161.88 191.855 162.937 190.267 162.974 189.813C163.004 189.495 162.329 189.398 162.406 189.029C159.943 189.816 159.022 190.441 157.149 191.545C153.446 192.784 149.627 193.732 145.735 194.411C145.415 194.639 145.093 194.864 144.767 195.088C144.767 195.089 144.767 195.089 144.767 195.089C143.304 195.525 142.598 195.183 141.775 195.194C133.945 195.561 118.599 195.785 110.054 194.071C108.178 193.794 102.376 192.233 101.06 192.125C100.724 192.109 100.568 192.335 100.226 192.254C97.2393 191.283 94.2529 190.183 91.3577 188.988C85.1116 187.193 79.1059 184.147 73.4096 180.985C57.9628 172.419 44.5726 160.814 33.8091 147.262C31.727 144.659 29.3915 141.091 27.5002 138.435C26.7076 137.323 26.0395 137.059 25.3486 135.365C25.2437 135.408 25.1388 135.451 25.0339 135.494C24.33 134.095 24.0351 133.11 23.1799 131.574C22.4441 130.282 20.6008 126.826 19.9891 125.683C19.6642 125.089 19.5912 125.408 19.309 124.842C18.8267 123.876 18.0715 121.634 17.4659 120.285C16.9097 119.069 15.7899 117.071 15.427 116.087C14.0868 112.51 13.063 108.662 11.7543 104.822C11.3992 103.79 10.739 102.52 10.65 102.186C10.4766 101.536 10.6749 101.27 10.584 100.826C10.1151 98.5752 8.92721 95.1376 8.43895 92.9653C6.77587 85.7363 5.78078 78.0176 5.18134 70.7257C4.86483 67.0427 4.66809 61.8226 4.5995 57.4428C4.57585 56.1972 4.57791 55.0674 4.57931 54.1176C4.58381 53.2144 4.28199 53.4492 4.33348 52.6732C4.39443 51.8168 4.63212 51.3767 4.68491 50.9849C4.98281 48.2676 6.28684 42.3771 6.86569 39.869C6.96248 39.3857 6.84746 38.9805 6.93331 38.6991C6.97647 38.5566 7.22114 38.2807 7.3769 37.845C8.79278 33.9586 9.88774 31.1731 11.7551 27.5965C15.3434 20.7247 21.5162 13.9541 28.2165 9.55809C29.6519 8.60108 30.5231 7.64542 30.7406 7.5327C31.2288 7.28746 31.6549 7.3959 32.6827 6.99498C36.0242 5.64286 40.6561 4.08103 44.0556 4.13509C45.7267 4.11176 47.9594 4.63883 49.4832 5.02698C50.7236 5.26376 53.5922 6.06918 54.0265 6.49102C54.3005 6.72027 54.3014 7.07664 54.6394 7.28304ZM13.1692 18.195C13.7292 18.2979 11.7705 20.2282 12.1463 19.2445C12.2267 19.0217 13.0209 18.162 13.1692 18.195ZM22.4207 136.583C22.2816 136.64 22.1425 136.697 22.0034 136.754C21.8748 136.427 21.7476 136.099 21.6215 135.77C21.7985 135.891 21.9756 136.011 22.1528 136.13C22.2419 136.281 22.3312 136.432 22.4207 136.583Z" fill="url(#paint0_linear_196_824)"/>
<defs>
<linearGradient id="paint0_linear_196_824" x1="71.5418" y1="189.339" x2="217.498" y2="-297.5" gradientUnits="userSpaceOnUse">
<stop stop-color="#FF9E84"/>
<stop offset="1" stop-color="#EBF3FE"/>
</linearGradient>
</defs>
</svg>
