<svg width="1880" height="377" viewBox="0 0 1880 377" fill="none" xmlns="http://www.w3.org/2000/svg">
<path d="M7.95552 150.748C2.94594 150.894 -4.15343 151.447 -10.0177 151.859C-34.7085 153.748 -43.8156 155.018 -65.9318 158.6C-99.471 161.222 -192.655 194.915 -191.086 198.272C-191.086 198.272 -191.086 198.272 -191.086 198.272C-191.081 198.284 -191.066 198.292 -191.043 198.296C-190.629 198.361 -182.931 195.097 -181.672 194.879C-180.413 194.666 -180.541 196.639 -169.615 192.174C-153.946 185.265 -114.758 172.758 -105.766 170.967C-99.7022 169.467 -92.1679 167.899 -84.3346 166.333C-59.0544 161.441 -45.6635 159.548 -22.5253 157.798C-13.2835 156.728 -4.10319 155.881 5.22011 155.241C17.322 154.773 35.7281 154.404 43.0741 154.62C49.0873 154.759 52.6205 155.062 58.9449 155.347C66.0478 155.678 76.7542 156.068 89.651 157.326C110.423 159.474 114.356 160.706 126.649 162.627C139.659 164.702 159.799 168.352 175.73 172.669C177.749 173.242 179.82 173.842 181.841 174.443C180.345 174.171 178.843 173.904 177.334 173.643C185.572 175.863 189.11 176.605 196.388 178.792C205.12 181.465 209.516 183.24 215.165 185.237C219.635 186.822 226.464 189.186 232.311 191.63C240.819 195.232 238.947 194.784 243.588 196.932C245.785 197.275 278.222 215.359 279.649 217.327C292.488 226.639 293.588 227.168 302.703 236.381C314.636 248.976 323.322 265.963 320.806 282.952C318.466 300.013 307.028 313.882 295.18 324.454C284.05 334.328 271.387 342.449 258.693 349.48C271.073 343.161 260.349 350.034 252.286 354.109C246.917 356.826 243.557 358.18 250.514 354.026C242.644 358.134 236.66 360.769 230.648 363.135C223.427 365.927 218.214 367.697 210.333 369.663C200.83 371.495 193.694 374.129 181.322 369.283C170.306 364.318 168.962 349.385 170.307 339.249C171.53 328.8 174.384 320.298 174.963 316.763C185.077 288.502 199.499 266.95 206.164 258.648C210.448 252.212 221.806 236.195 227.398 229.609C231.568 222.365 276.412 178.603 285.692 173.814C293.862 167.612 309.091 158.086 316.729 154.369C326.526 149.593 333.459 146.875 351.426 140.35C373.066 135.135 381.234 134.42 401.691 136.66C405.384 137.223 405.87 137.177 407.972 137.613C412.274 138.514 419.804 140.697 427.08 143.89C439.032 149.157 445.449 153.696 443.888 153.205C450.848 157.837 458.051 163.898 463.853 169.749C466.085 171.784 468.305 173.933 470.509 176.2C473.802 180.014 476.397 183.334 479.149 187.07C477.34 183.776 485.77 194.818 489.021 200.469C490.502 202.916 490.965 203.878 488.921 201.063C498.539 215.391 509.391 228.81 521.26 241.264C519.913 239.252 548.276 267.566 545.751 265.386C547.24 266.677 548.742 267.955 550.255 269.222C563.65 280.044 576.283 289.623 594.279 300.524C612.333 311.123 610.9 309.789 616.667 312.479C621.001 314.794 625.387 317.036 629.822 319.205C652.918 330.916 649.129 328.337 690.799 343.225C704.457 346.986 738.168 355.844 761.083 359.255C763.737 359.682 763.761 359.834 767.303 360.379C775.953 361.852 798.246 363.726 797.455 364.036C805.189 364.503 812.932 364.788 820.675 364.89C826.999 365.166 833.314 365.321 839.655 365.352C839.624 365.496 839.594 365.64 839.563 365.783C852.319 365.29 872.339 364.302 882.149 363.141C884.102 362.919 884.497 362.71 890.575 361.968C897.688 361.122 910.82 359.297 919.211 357.679C922.509 357.308 925.801 356.901 929.088 356.458C944.011 353.476 949.094 351.471 957.682 349.118C959.306 348.93 987.295 340.082 988.722 339.296C1000.8 334.598 998.082 337.595 1031.83 321.158C1037.78 318.094 1042.45 315.355 1047.68 312.347C1057.16 307.405 1083.78 289.317 1085.81 287.755C1096.16 279.879 1121.5 256.191 1127.86 248.07C1129.85 245.727 1130.17 245.096 1136.13 237.747C1141.1 231.817 1152.83 216.026 1157.86 207.556C1163.21 198.807 1164.73 195.393 1166.94 191.314C1167.93 189.462 1168.91 187.689 1169.96 185.748C1171.15 183.532 1172.44 181.174 1173.95 178.401C1182.68 162.367 1191.7 148.46 1201.38 137.321C1214.84 121.731 1230.68 110.606 1246.93 105.076C1250.87 103.612 1254.92 102.339 1259.34 101.474C1316.62 91.4037 1372.19 136.704 1417.88 168.334C1438.67 184.93 1496.47 217.564 1480.61 209.686C1484.77 211.746 1501.86 221.489 1522.22 223.216C1543.17 225.744 1561.16 212.292 1565.53 207.442C1574.69 198.492 1580.15 189.941 1585.23 180.386C1588.29 174.49 1591.01 168.341 1593.55 161.799C1601.75 141.904 1608.24 123.918 1626.54 103.211C1632.63 96.5588 1641.39 91.4656 1646.29 90.1065C1652.23 88.1427 1659.17 87.4441 1667.23 89.8811C1687.37 94.8872 1713.73 125.324 1725.74 140.851C1727.98 143.686 1728.95 144.538 1732.21 148.708C1744.72 164.708 1757.81 183.675 1754.86 180.73C1770.26 201.864 1783.66 222.102 1798.26 241.578C1821.83 271.554 1870.97 340.765 1926.79 322.384C1938.37 318.577 1947.15 311.937 1953.65 305.863C1973.15 284.864 1973.26 285.223 1991.93 247.792C1995.79 239.467 1999.42 231.033 2003.74 220.546C2013.65 196.298 2021.63 173.611 2029.79 155.392C2040.42 128.376 2049.71 107.212 2058.45 87.5728C2059.69 85.3434 2060.94 83.1327 2062.2 80.936C2063.77 77.7602 2065.37 74.5906 2067 71.4301C2067.38 70.3769 2067.76 69.3238 2068.14 68.2711C2079.73 45.5824 2097.37 18.4778 2110.54 1.5334C2129.54 -29.7992 2203.42 -88.1298 2237.25 -97.0308C2254.23 -103.558 2255.16 -103.202 2265.13 -106.843C2265.24 -106.871 2265.34 -106.899 2265.45 -106.927C2269.54 -108.032 2273.54 -109.063 2277.45 -110.022C2279.99 -110.529 2282.5 -111.006 2284.96 -111.454C2307.17 -116.868 2334.97 -121.646 2356.97 -120.985C2376.16 -120.52 2404.53 -116.448 2417.68 -95.0964C2430.58 -73.5102 2422.87 -46.5476 2415.42 -28.442C2411.58 -19.0541 2405.69 -7.79204 2400.24 0.498296C2392.14 12.5199 2389.7 15.2282 2377.77 29.0564C2357.78 53.7825 2309.45 89.4852 2280.58 98.326C2272.18 101.369 2268.17 102.3 2262.28 103.816C2237.44 109.832 2215.6 110.277 2192.13 103.581C2167.17 95.8416 2169.61 95.5465 2162.01 92.3979C2155.93 89.747 2140.55 79.0648 2138.11 77.0203C2136.42 75.9004 2141.78 81.1171 2139.47 79.4985C2164.29 100.24 2178.3 105.517 2203.96 110.39C2252.59 118.556 2301.07 98.2989 2339.42 69.7837C2342.85 67.0215 2346.19 64.1867 2349.47 61.2652C2349.47 61.2649 2349.47 61.2647 2349.47 61.2644C2363.53 49.2342 2369.24 43.7295 2376.15 36.6145C2399.08 9.98241 2443.85 -37.4604 2422.6 -95.0382C2407.84 -121.924 2372.8 -125.944 2345.61 -124.872C2316.68 -123.532 2290.87 -117.62 2264.5 -110.278C2237.69 -102.727 2214.09 -91.9869 2195.16 -80.7485C2173.96 -71.346 2119.69 -20.6696 2111.84 -6.89929C2109.4 -3.69979 2108.92 -2.66477 2106.34 0.758898C2083.21 31.2118 2064.76 64.9713 2048.77 99.5511C2014.3 169.074 2000.46 255.863 1942.55 309.416C1937.25 313.266 1931.58 316.289 1925.44 318.313C1885.67 331.301 1850.73 297.336 1825.63 268.819C1799.57 238.556 1777.57 205.026 1754.42 172.422C1730.74 140.875 1709.45 104.362 1671.3 86.6846C1651.29 77.8011 1628.93 90.9293 1617.51 107.142C1605.22 123.313 1597.27 140.814 1589.57 160.246C1581.15 181.307 1570.43 202.049 1551.14 213.122C1531.75 224.235 1507.92 218.091 1488.11 208.543C1451.74 191.006 1412 157.549 1378.44 135.969C1364.44 127.006 1358.43 123.349 1339.09 113.098C1338.83 113.094 1338.57 113.092 1338.32 113.089C1321.24 104.877 1309.55 99.5945 1288.11 96.5207C1279.18 95.2935 1261.96 95.0153 1246.41 100.692C1230.53 106.13 1217.91 116.217 1211.95 121.621C1205.59 127.526 1208.12 125.393 1202.86 130.848C1193.03 140.75 1177.25 163.244 1168.79 179.883C1168.1 181.178 1167.38 182.567 1166.63 184.04C1159.27 198.955 1146.26 219.084 1139.15 228.054C1111.82 264.129 1072.74 295.683 1029.78 317.429C1018.02 323.558 1002.28 330.435 998.408 331.902C990.829 334.865 988.44 335.422 983.264 337.221C957.149 346.671 914.712 356.216 887.565 358.783C799.346 368.667 702.898 352.657 624.014 312.504C580.462 292.035 520.056 243.845 492.23 198.367C487.201 190.723 482.355 184.352 477.899 179.071C470.417 170.493 472.068 172.784 465.45 166.166C458.297 159.315 453.157 155.272 449.333 152.538C435.84 142.442 409.557 130.559 382.057 131.873C354.646 132.506 329.352 143.442 315.242 150.98C309.908 153.815 306.194 156.256 303.051 158.148C301.461 159.111 297.779 161.168 292.993 164.359C250.942 193.603 225.235 222.01 197.573 263.491C181.838 289.505 163.667 318.749 166.091 353.309C167.091 361.469 172.472 370.55 180.869 373.709C182.841 374.539 184.998 375.166 187.34 375.582C189.578 375.971 191.361 376.122 193.556 376.184C195.696 376.236 197.961 376.148 200.354 375.917C202.258 375.732 204.219 375.461 206.274 375.095C223.518 371.764 237.762 365.366 253.893 357.24C286.406 339.906 324.518 316.205 325.537 276.413C324.381 253.079 311.619 241.88 310.145 239.205C305.999 234.213 303.096 230.134 292.762 221.428C256.992 191.659 197.291 172.804 154.919 163.999C134.206 159.436 104.874 154.855 83.9797 153.113C67.2564 151.248 27.494 150.618 20.02 150.881C15.4976 150.868 13.3936 150.593 7.95552 150.748ZM171.964 359.68C172.244 361.007 169.517 355.212 169.386 349.051C169.149 343.501 169.932 338.663 169.706 344.362C169.697 345.59 169.625 349.312 170.199 352.912C170.466 354.653 170.842 356.197 171.192 357.366C171.583 358.663 171.924 359.499 171.964 359.68ZM1332.25 113.289C1331.93 113.303 1331.6 113.319 1331.28 113.335C1327.62 111.585 1323.91 109.937 1320.07 108.388C1322.24 109.13 1324.49 109.953 1326.6 110.759C1328.48 111.569 1330.36 112.413 1332.25 113.289Z" fill="url(#paint0_linear_394_5281)"/>
<defs>
<linearGradient id="paint0_linear_394_5281" x1="413.995" y1="421.001" x2="1386" y2="177.499" gradientUnits="userSpaceOnUse">
<stop stop-color="#EA876B"/>
<stop offset="0.365385" stop-color="#EBF3FE"/>
<stop offset="0.763106" stop-color="#EBF3FE"/>
<stop offset="1" stop-color="#EA876B"/>
</linearGradient>
</defs>
</svg>
