<svg width="20" height="14" viewBox="0 0 20 14" fill="none" xmlns="http://www.w3.org/2000/svg">
<path d="M9.27761 0.972656C8.35574 1.08203 7.65652 1.23047 6.97293 1.46484C4.7659 2.21875 2.54324 3.76953 0.761989 5.78906C0.0979266 6.54688 0.0237079 6.65625 0.00808289 6.94141C-0.00363586 7.11719 0.00808289 7.21875 0.0588641 7.31641C0.258083 7.70312 1.96902 9.51172 2.75418 10.1719C4.59793 11.7148 6.36746 12.5898 8.34793 12.9453C8.78152 13.0195 8.98074 13.0312 9.84402 13.0352C10.6175 13.0352 10.9378 13.0195 11.2815 12.9648C13.4182 12.6211 15.4886 11.6094 17.4807 9.93359C18.2659 9.27734 19.7073 7.74609 19.9339 7.33984C20.0159 7.1875 20.0237 6.82812 19.9417 6.67578C19.8479 6.49219 19.1604 5.69922 18.5589 5.07422C16.1839 2.625 13.7307 1.27734 11.1136 0.984375C10.7854 0.949219 9.54324 0.9375 9.27761 0.972656ZM11.0159 2.43359C13.305 2.67578 15.6487 4.04688 17.8206 6.40625C18.1057 6.71484 18.344 6.98047 18.3518 6.99609C18.3714 7.04688 17.1214 8.3125 16.6761 8.69922C13.594 11.3633 10.3792 12.2227 7.31277 11.1953C5.58621 10.6172 3.79324 9.36328 2.18777 7.60938C1.89871 7.29297 1.65652 7.01953 1.64871 7C1.63308 6.95312 2.92605 5.63672 3.34793 5.27344C5.85574 3.11719 8.44558 2.15625 11.0159 2.43359Z" fill="#8A8C99"/>
<path d="M9.66016 3.45311C8.58984 3.54296 7.625 4.12108 7.02734 5.02343C6.62891 5.6289 6.44141 6.26171 6.44141 6.99999C6.44141 7.73827 6.62891 8.37108 7.02734 8.97655C8.26172 10.8476 10.9297 11.1133 12.5234 9.52343C13.207 8.83593 13.5547 7.98827 13.5547 6.99999C13.5547 6.01171 13.207 5.16405 12.5234 4.47655C11.7617 3.71874 10.7578 3.35936 9.66016 3.45311ZM10.6445 4.97265C11.0781 5.10546 11.5391 5.46483 11.8008 5.87499C12.2266 6.53515 12.2266 7.46483 11.8008 8.12499C11.1602 9.12108 9.84766 9.42577 8.88281 8.80468C7.53516 7.93358 7.53516 6.0664 8.875 5.19921C9.39844 4.86327 10.0273 4.78124 10.6445 4.97265Z" fill="#8A8C99"/>
</svg>
