<svg width="26" height="26" viewBox="0 0 26 26" fill="none" xmlns="http://www.w3.org/2000/svg">
<path d="M10.332 3.28047C9.86992 3.34648 9.11836 3.53437 8.66641 3.68672C6.35586 4.49414 4.49219 6.35781 3.68477 8.66836C3.33945 9.67383 3.27344 10.0953 3.27344 11.375C3.27344 12.2992 3.29375 12.5988 3.36992 12.9492C3.91328 15.4578 5.39609 17.4281 7.61523 18.6062C9.44844 19.5711 11.8301 19.7793 13.841 19.1445C14.5316 18.9262 15.466 18.459 16.0398 18.0527L16.5172 17.7125L18.9852 20.1754C20.341 21.5312 21.5039 22.6637 21.5648 22.6941C21.6258 22.7246 21.7984 22.75 21.9457 22.75C22.4383 22.75 22.748 22.4402 22.748 21.9477C22.748 21.8004 22.7227 21.6277 22.6922 21.5668C22.6617 21.5059 21.5293 20.343 20.1734 18.9871L17.7105 16.5191L18.0508 16.0418C18.457 15.468 18.9242 14.5336 19.1426 13.843C19.6402 12.2586 19.625 10.3695 19.0969 8.78516C18.3098 6.42891 16.4562 4.52969 14.1406 3.70703C13.1859 3.37187 12.7238 3.29062 11.5508 3.27539C10.9668 3.26523 10.4184 3.27031 10.332 3.28047ZM12.4902 5.00703C13.3941 5.16953 14.3488 5.56562 15.075 6.07851C15.5422 6.40859 16.2836 7.14492 16.6238 7.61211C17.416 8.71914 17.8223 9.98867 17.8223 11.375C17.8223 13.1676 17.1621 14.7266 15.8773 15.9809C15.3238 16.5191 14.8973 16.8289 14.2879 17.1387C13.384 17.6008 12.4191 17.8293 11.373 17.8293C10.327 17.8293 9.36211 17.6008 8.4582 17.1387C7.84883 16.8289 7.42227 16.5191 6.86875 15.9809C5.58398 14.7266 4.92383 13.1676 4.92383 11.375C4.92383 9.58242 5.58398 8.02344 6.86875 6.76914C7.41719 6.23594 7.84883 5.92109 8.45312 5.61133C9.69727 4.97656 11.1242 4.76328 12.4902 5.00703Z" fill="#2B3746" fill-opacity="0.4"/>
</svg>
