<svg width="18" height="18" viewBox="0 0 18 18" fill="none" xmlns="http://www.w3.org/2000/svg">
<path d="M14.4228 0.533017C14.315 0.577608 14.2704 0.640778 13.8097 1.38024L13.3935 2.05281L12.6057 2.24975C12.1747 2.3538 11.7771 2.46527 11.7213 2.495C11.5913 2.55817 11.543 2.65107 11.543 2.83686C11.543 2.98921 11.6061 3.07096 12.6094 4.25632C12.654 4.31206 12.654 4.43468 12.6057 5.12212C12.5723 5.56431 12.5463 5.96191 12.5463 6.00278C12.5463 6.12169 12.7766 6.3335 12.9104 6.3335C12.9699 6.3335 13.3675 6.19229 13.7948 6.01765L14.5714 5.7018L15.3592 6.01765C15.7939 6.19229 16.1841 6.3335 16.2287 6.3335C16.3439 6.3335 16.4999 6.23688 16.5594 6.13284C16.604 6.04737 16.6003 5.9136 16.5483 5.17414L16.4888 4.31578L17.0462 3.65435C17.5738 3.01894 17.5998 2.98178 17.5998 2.82571C17.5998 2.52844 17.5627 2.50615 16.6077 2.26833L15.7605 2.05653L15.3517 1.39882C15.1288 1.03838 14.891 0.685368 14.8278 0.618482C14.7052 0.495859 14.5788 0.469847 14.4228 0.533017Z" fill="#6398FD"/>
<path d="M2.25316 2.96722C1.40594 3.2199 0.803965 3.80329 0.514127 4.64308L0.413799 4.94035L0.402651 8.82343C0.391503 13.2267 0.380356 13.0298 0.681341 13.6541C0.90801 14.126 1.30189 14.5273 1.77009 14.7577C2.30518 15.0289 2.38321 15.0401 3.69492 15.0587L4.8617 15.0735L4.84684 15.7833C4.83569 16.4001 4.84312 16.5227 4.90257 16.6937C5.0029 16.9798 5.21099 17.2213 5.48968 17.3699C5.71635 17.4926 5.74608 17.5 6.09909 17.5C6.41865 17.5 6.49297 17.4889 6.63417 17.4108C6.72335 17.3662 7.47024 16.8163 8.29145 16.1994L9.78895 15.0698L11.7138 15.055C13.8764 15.0401 13.8244 15.0475 14.3855 14.7577C14.8165 14.5384 15.2699 14.0777 15.478 13.6466C15.7455 13.0967 15.7418 13.1636 15.7418 9.95306V7.0844L15.177 6.85774C14.8648 6.7314 14.5899 6.63107 14.5676 6.63107C14.5453 6.63107 14.2368 6.74998 13.8801 6.89861C13.267 7.15129 13.2187 7.16615 12.9363 7.16615C12.6799 7.16987 12.6093 7.15501 12.4198 7.06211C12.0185 6.86517 11.7546 6.4973 11.7101 6.07369C11.6989 5.96221 11.7101 5.57948 11.7361 5.22647L11.7881 4.58362L11.3422 4.05597C10.9037 3.53575 10.7551 3.2905 10.7068 3.01552L10.6808 2.87804L6.60444 2.88175H2.53185L2.25316 2.96722ZM11.3979 7.1773C11.5689 7.28506 11.6729 7.5043 11.6395 7.68638C11.6097 7.84244 11.4722 8.01709 11.331 8.07654C11.253 8.10627 10.3946 8.11742 8.13538 8.10999L5.04006 8.09884L4.90629 7.96507C4.69449 7.74955 4.69449 7.40397 4.90629 7.22932C5.08465 7.08069 5.12924 7.07697 8.25429 7.08812L11.2641 7.09555L11.3979 7.1773ZM8.54413 9.84158C8.74107 9.92333 8.86741 10.1017 8.86741 10.2986C8.86741 10.5067 8.78566 10.6516 8.6073 10.752C8.46981 10.8263 8.42151 10.83 6.81997 10.83C4.98061 10.83 4.99919 10.8337 4.82826 10.5736C4.66104 10.3284 4.76137 9.99393 5.04006 9.85645C5.15897 9.79699 5.32247 9.78956 6.79767 9.78956C8.08708 9.78956 8.44752 9.80071 8.54413 9.84158Z" fill="#6398FD"/>
</svg>
