<svg width="23" height="20" viewBox="0 0 23 20" fill="none" xmlns="http://www.w3.org/2000/svg">
<path d="M10.5525 0.808147C10.8585 -0.098909 12.1415 -0.0989079 12.4475 0.808148L14.3014 6.30249C14.4386 6.70905 14.8198 6.98278 15.2489 6.98278H21.1655C22.1434 6.98278 22.54 8.2416 21.7388 8.80215L17.0179 12.1051C16.6541 12.3596 16.5017 12.8235 16.6436 13.2441L18.462 18.6334C18.7707 19.5481 17.7323 20.3259 16.9413 19.7724L12.0733 16.3666C11.729 16.1258 11.271 16.1258 10.9267 16.3666L6.05873 19.7724C5.26773 20.3259 4.22932 19.5481 4.53796 18.6334L6.35637 13.2441C6.49832 12.8235 6.3459 12.3596 5.98212 12.1051L1.2612 8.80215C0.459988 8.2416 0.856625 6.98278 1.83446 6.98278H7.75109C8.18017 6.98278 8.56142 6.70905 8.6986 6.30249L10.5525 0.808147Z" fill="#FFA946"/>
</svg>
