<svg width="151" height="378" viewBox="0 0 151 378" fill="none" xmlns="http://www.w3.org/2000/svg">
<path d="M124.57 365.545C125.202 365.738 126.026 366.24 126.781 366.514C129.966 367.657 130.815 368.064 133.649 369.015C138.067 370.58 150.313 373.289 150.302 374.616C150.302 374.616 150.302 374.616 150.302 374.616C150.299 374.629 150.295 374.642 150.29 374.655C150.185 374.896 148.987 374.912 148.755 375.156C148.524 375.401 148.22 377.265 146.596 376.992C144.21 376.588 139.067 374.757 137.967 374.461C137.185 374.262 136.036 374.118 134.973 373.842C131.521 372.937 129.861 372.28 126.871 371.772C125.724 371.128 124.548 370.458 123.439 369.795C121.826 369.336 119.674 368.156 118.791 367.815C118.054 367.534 117.594 367.555 116.742 367.207C115.814 366.829 114.504 366.039 112.924 365.343C110.319 364.179 109.841 364.487 108.147 363.69C106.451 362.889 104.156 361.288 102.232 360.29C101.98 360.198 101.67 360.068 101.392 359.957C101.506 360.179 101.623 360.401 101.741 360.623C100.675 360.02 100.385 359.521 99.4908 358.91C98.4461 358.19 97.7937 358.017 97.125 357.523C96.5627 357.105 96.0308 356.456 95.2504 355.845C94.1804 354.999 94.236 355.403 93.6454 354.974C93.3429 354.821 89.4996 351.398 89.2686 351.059C87.6845 349.354 87.8713 348.948 86.797 347.547C83.6975 343.442 81.0749 338.973 79.628 334.365C78.9889 332.365 78.5647 330.158 78.3678 328.075C79.7496 331.163 79.6923 323.984 78.4376 326.791C78.4455 324.478 77.9936 322.832 78.1229 320.66C78.2193 319.255 78.485 318.282 78.6858 316.304C79.035 312.802 79.2514 308.895 80.5536 308.159C81.2624 304.122 82.6881 300.875 82.1876 299.194C82.4377 298.17 83.825 295.797 84.2796 294.725C84.6806 293.681 87.8029 285.862 88.3085 284.574C88.7997 283.289 89.6417 281.054 89.9581 279.93C90.3564 278.518 89.7363 277.284 91.7013 275.213C92.5656 272.374 92.9347 271.351 93.8375 268.764C93.9975 268.298 94.1806 268.293 94.2582 268.017C94.4202 267.438 94.5697 266.393 94.8052 265.359C95.1899 263.67 95.7333 262.761 95.1457 262.838C95.2863 261.676 95.3865 260.539 95.441 259.432C95.5998 259.071 95.7592 258.663 95.9095 258.279C95.8568 257.656 95.7887 257.046 95.7048 256.449C96.5228 257.203 96.1105 252.955 95.6265 254.336C95.7787 252.2 95.6963 250.072 95.287 248.005C95.7741 248.029 95.4897 246.865 94.9051 245.848C94.3278 244.815 93.4908 244.011 93.3697 244.311C93.2603 244.106 93.1466 243.904 93.0285 243.702C92.1964 241.87 90.995 240.607 89.243 238.837C89.1409 238.736 89.038 238.634 88.9342 238.53C86.9384 236.576 87.184 236.726 86.7952 235.865C86.2725 235.49 85.7483 235.129 85.2228 234.783C81.9253 233.981 83.4116 232.294 77.9019 230.551C76.5932 229.077 72.0734 227.804 69.1122 227.412C68.7644 227.359 68.7274 227.496 68.2637 227.441C67.1382 227.282 64.2976 226.669 64.3339 227.152C63.3602 226.889 62.3828 226.654 61.3898 226.444C60.5639 226.464 59.7382 226.502 58.9126 226.557C58.9118 226.7 58.9108 226.844 58.9098 226.988C57.2704 226.428 54.6679 226.655 53.3817 226.607C53.1247 226.596 53.0605 226.398 52.2571 226.391C51.3232 226.379 49.5548 226.584 48.4562 226.642C48.0498 226.906 47.6459 227.172 47.2443 227.441C45.2933 227.799 44.5146 227.337 43.3376 227.472C43.1121 227.484 39.3271 228.186 39.1235 228.25C37.4683 228.679 38.0244 229.026 33.1798 229.988C32.3182 230.163 31.5851 230.158 30.8064 230.335C29.4291 230.639 25.3865 232.045 25.1517 232.477C23.3807 232.46 18.973 233.789 17.6165 234.003C17.2089 234.066 17.0481 233.813 15.812 234.066C14.809 234.272 12.3243 235.132 11.033 235.404C9.67504 235.691 9.14001 235.57 8.53425 235.695C7.96229 235.813 7.4817 236.122 6.70755 236.296C4.29476 236.834 1.96447 236.993 0.0452125 237.339C-2.70827 237.836 -5.22221 238.786 -7.56697 239.298C-8.16817 239.326 -8.74079 239.259 -9.38942 239.315C-17.1264 240.044 -26.3723 239.294 -33.6708 235.922C-37.2847 234.659 -44.103 228.423 -42.9352 230.915C-44.211 230.516 -50.4325 223.346 -51.2691 221.839C-52.3193 220.439 -53.4304 219.215 -54.093 218.196C-56.1754 214.977 -57.777 211.696 -59.8554 207.642C-60.4272 206.518 -61.2298 205.344 -61.5276 204.618C-61.8861 203.745 -62.0242 202.694 -62.4623 201.509C-63.5026 198.754 -65.1543 194.12 -65.9319 191.314C-66.0711 190.817 -65.8989 190.578 -66.0373 189.843C-66.6221 186.818 -67.2839 184.302 -67.8992 184.914C-68.3471 181.51 -69.4751 178.383 -70.2182 174.999C-71.6902 168.669 -73.6257 155.483 -74.5903 150.076C-75.2614 146.371 -75.5932 146.551 -75.9482 140.769C-76.0209 139.511 -76.0879 138.045 -76.1449 136.712C-76.2996 133.381 -75.9649 130.19 -76.9306 127.589C-77.0619 123.69 -77.4318 120.494 -77.0004 117.413C-77.1771 117.065 -77.3536 116.715 -77.5299 116.365C-77.5671 115.856 -77.5973 115.446 -77.6304 114.984C-77.4938 114.834 -77.3572 114.683 -77.2205 114.533C-77.3872 111.293 -78.2186 107.086 -78.354 104.183C-78.6122 99.2925 -78.8218 86.5478 -78.7071 82.2113C-78.6595 79.8007 -78.9732 79.6697 -78.3602 78.2619C-78.4159 77.7167 -78.4712 77.1698 -78.5262 76.6209C-78.6732 76.2796 -78.8201 75.9374 -78.9668 75.5943C-79.0293 72.4304 -78.8607 68.5952 -78.8897 65.4571C-78.9454 60.102 -79.3417 52.2883 -79.0514 46.7188C-78.9795 45.3379 -78.6767 43.6 -78.6676 42.2263C-78.6536 40.2245 -79.1305 39.7336 -79.1087 37.1588C-79.0699 32.512 -78.3818 25.2874 -78.3303 21.1764C-78.3164 19.9914 -78.4824 19.4313 -78.4822 18.6073C-78.4823 15.148 -78.3916 12.27 -78.57 8.85649C-78.0015 5.20375 -77.4135 5.52831 -76.7781 4.40351C-76.2984 3.55075 -75.1611 0.90278 -74.7511 0.531802C-74.4634 0.272859 -74.138 1.28621 -73.8186 0.920558C-73.7198 5.39271 -74.0439 7.22595 -74.5762 10.755C-74.7416 17.2819 -74.8677 23.6267 -74.9555 29.7942C-75.1326 30.3525 -75.3094 30.9094 -75.4859 31.4651C-75.4863 31.4651 -75.4866 31.4651 -75.487 31.4651C-75.7171 33.7824 -75.3 34.8875 -75.2203 36.2799C-74.5031 49.5297 -75.138 74.2857 -74.767 87.9643C-74.7304 90.5032 -74.0932 101.058 -74.2564 102.984C-74.3016 103.523 -74.5526 103.684 -74.536 104.253C-74.1246 109.439 -73.7199 113.768 -73.1825 119.252C-72.8193 130.07 -71.5054 140.395 -70.0387 150.894C-65.7306 177.95 -60.889 208.745 -40.8167 227.021C-36.8815 230.406 -30.9238 233.102 -26.0414 234.269C-24.0157 234.769 -23.1663 235.359 -20.3793 235.336C-20.3605 235.45 -20.3417 235.564 -20.3226 235.678C-17.8772 235.751 -16.2505 235.542 -13.5387 235.441C-11.2033 235.412 -5.08385 234.703 -2.98252 234.352C-1.89412 234.194 -2.27505 234.47 -1.28537 234.296C0.385025 234.008 4.02579 232.973 6.326 232.438C8.42321 231.967 12.0995 231.309 13.6978 230.866C19.5395 229.265 25.8557 227.186 32.2605 225.838C34.0158 225.466 36.3718 225.255 36.9233 225.139C38.0071 224.908 38.282 224.589 39.0081 224.418C42.6931 223.532 48.6228 223.037 52.406 222.875C64.5405 222.006 78.3458 224.943 88.1282 232.662C89.2942 233.542 90.5934 234.597 91.9566 235.832C98.5374 240.983 100.733 251.997 99.6688 257.698C99.4803 259.257 99.2304 258.839 99.065 260.11C98.8671 261.507 98.9091 262.312 98.7978 262.981C98.1534 267.604 95.1212 277.267 93.4403 281.16C93.1259 281.913 92.7093 282.392 92.5411 282.852C92.4561 283.084 92.4114 283.651 92.1601 284.377C89.9379 290.809 88.1042 295.374 86.1343 301.645C82.2901 313.496 80.5104 328.676 86.88 339.935C88.1562 342.338 88.9775 344.136 89.2237 344.472C89.7884 345.205 90.2964 345.401 91.4869 346.675C95.3976 350.963 101.673 355.97 106.62 358.562C109.08 359.907 112.689 361.296 115.183 362.322C117.267 363.227 121.962 365.269 122.927 365.433C123.515 365.546 123.884 365.337 124.57 365.545ZM79.1963 314.24C79.6276 314.718 79.9111 310.393 79.3665 311.939C79.2347 312.291 79.0716 314.117 79.1963 314.24ZM-19.8492 238.524C-19.8215 238.675 -19.7935 238.826 -19.7652 238.977C-19.1953 238.958 -18.6256 238.929 -18.056 238.892C-18.3707 238.789 -18.6834 238.683 -18.9939 238.575C-19.2794 238.56 -19.5645 238.543 -19.8492 238.524Z" fill="url(#paint0_linear_196_627)"/>
<defs>
<linearGradient id="paint0_linear_196_627" x1="111.855" y1="383.743" x2="129.93" y2="57.3429" gradientUnits="userSpaceOnUse">
<stop stop-color="#FF9E84"/>
<stop offset="1" stop-color="#EBF3FE"/>
</linearGradient>
</defs>
</svg>
