<svg width="531" height="222" viewBox="0 0 531 222" fill="none" xmlns="http://www.w3.org/2000/svg">
<path d="M33.4493 163.199C32.3457 162.793 30.61 162.49 29.1875 162.345C23.1344 161.972 20.7578 163.125 16.3388 165.997C8.80668 170.078 -0.783319 190.011 0.168319 190.652C0.16834 190.652 0.16836 190.652 0.168381 190.652C0.176488 190.655 0.185574 190.657 0.195676 190.656C0.385969 190.641 1.35205 188.934 1.64613 188.768C1.93989 188.605 2.99353 189.26 4.16944 186.982C5.66337 183.772 10.2761 175.672 11.5505 174.396C12.3636 173.374 13.6527 172.053 14.8066 170.963C18.8585 167.28 21.5384 165.715 26.2162 165.548C28.0719 165.266 30.0164 165.368 31.9409 165.782C34.3802 166.521 37.9904 168.353 39.2404 169.259C40.3099 169.996 40.9081 170.599 41.9422 171.419C43.1343 172.367 45.036 173.8 47.0511 175.793C50.2987 179.056 50.5926 179.964 52.4066 182.035C54.3072 184.228 57.3155 187.54 59.5402 190.498C59.8023 190.882 60.0636 191.266 60.3253 191.652C60.0518 191.445 59.7786 191.238 59.5053 191.032C60.641 192.507 61.2754 193.029 62.3408 194.365C63.5895 195.932 64.1153 196.859 64.9552 197.916C65.6402 198.778 66.691 199.89 67.5919 201.025C68.9038 202.674 68.4565 202.417 69.1521 203.328C69.4143 203.735 74.7754 210.209 75.1526 210.527C77.6514 213.223 78.0761 213.275 80.2233 215.23C82.9245 217.571 85.7771 219.899 89.6073 220.953C93.5232 222.171 97.9617 220.115 100.256 217.289C100.947 216.517 101.607 215.736 102.238 214.951C104.346 212.334 106.275 209.417 107.95 206.561C104.703 210.664 110.141 200.551 108.851 204.764C110.562 201.515 112.014 199.357 113.57 196.274C114.572 194.282 115.143 192.844 116.607 190.035C119.177 185.025 122.585 180.02 122.856 178.298C126.412 172.846 130.086 168.547 132.232 167.493C133.414 166.369 136.492 163.493 138.085 162.533C138.811 162.043 142.062 160.09 145.736 158.865C149.403 157.577 153.286 157.016 154.419 156.887C156.604 156.589 160.513 156.447 162.397 156.571C164.799 156.712 166.378 157.434 170.599 157.149C175.525 157.88 177.262 158.217 181.673 159.109C182.485 159.28 182.606 159.191 183.085 159.306C183.553 159.42 184.177 159.594 184.902 159.802C185.694 160.03 186.595 160.285 187.52 160.521C190.419 161.258 192.107 161.393 191.702 161.685C193.595 162.197 195.411 162.674 197.366 163.166C198.06 163.244 198.752 163.318 199.442 163.391C200.454 163.686 201.462 163.976 202.468 164.261C201.387 163.5 208.466 165.21 206.089 165.065C209.897 165.679 213.63 166.212 217.37 166.679C216.958 166.017 225.651 167.808 224.858 168.017C225.284 168.072 225.71 168.127 226.135 168.18C229.974 168.495 233.392 169.01 238.028 169.3C242.694 169.572 242.24 169.453 243.659 169.269C244.742 169.356 245.782 169.435 246.903 169.511C252.658 170.545 251.569 169.256 261.409 169.922C264.496 169.452 272.196 169.526 277.352 169.294C277.944 169.271 277.962 169.365 278.747 169.337C280.611 169.288 285.643 168.678 285.473 168.994C287.161 168.728 288.818 168.446 290.542 168.134C291.95 168.009 293.343 167.871 294.72 167.721C294.727 167.817 294.734 167.912 294.742 168.008C297.474 167.281 301.886 166.625 303.998 166.112C304.427 166.009 304.499 165.864 305.825 165.55C307.388 165.182 310.182 164.59 312.059 164.076C312.811 164.04 313.559 164 314.303 163.957C317.524 163.187 318.645 162.443 320.507 161.85C320.824 161.784 327.064 159.747 327.358 159.612C330.01 158.672 329.503 159.414 337.118 156.035C338.469 155.412 339.457 154.821 340.7 154.207C342.866 153.213 349.167 149.924 349.781 149.752C352.119 148.072 358.484 143.508 360.028 141.855C360.531 141.36 360.562 141.114 362.027 139.622C363.261 138.419 366.333 135.128 367.482 133.25C368.777 131.229 368.966 130.421 369.437 129.445C369.849 128.545 370.341 127.74 370.758 126.406C371.408 124.309 371.628 122.091 371.387 120.099C371.162 118.193 370.885 116.587 370.565 114.973C369.627 110.414 368.41 105.906 364.938 102.902C364.033 102.226 363.035 101.75 361.949 101.345C352.198 98.5833 343.69 105.25 336.87 110.876L338.879 111.213C336.607 107.278 333.954 103.725 330.868 100.69C328.764 98.5842 324.274 95.13 319.856 94.8815C315.485 94.614 312.902 96.6664 314.677 95.1964C313.298 95.4119 308.616 98.8393 306.166 103.26C303.923 106.851 303.557 110.822 303.447 112.112C303.208 115.073 303.295 117.429 303.672 119.713C304.997 126.529 306.989 131.056 311.183 138.211C312.294 140.054 313.474 142.03 314.24 143.049C315.161 144.279 316.322 145.471 317.602 146.96C320.608 150.618 326.956 156.684 330.596 159.361C331.248 159.86 331.584 159.924 332.545 160.58C336.315 163.178 340.705 165.806 339.675 165.766C340.733 166.342 341.771 166.906 342.812 167.466C346.83 169.626 350.844 171.438 355.02 172.715C366.182 176.739 387.372 176.437 397.231 174.71C403.503 173.77 403.395 174.135 412.355 171.683C414.326 171.115 416.294 170.498 418.681 169.707C424.188 167.879 429.097 165.603 433.38 164.384C439.356 161.788 444.034 159.644 448.115 157.072C448.664 156.905 449.212 156.734 449.761 156.561C450.464 156.194 451.166 155.822 451.866 155.446C452.038 155.242 452.209 155.039 452.38 154.834C457.367 152.105 463.722 148.67 467.715 145.964C474.605 141.709 490.64 128.332 495.683 122.557C498.485 119.585 498.766 119.548 500.02 117.547C500.651 116.895 501.275 116.239 501.892 115.579C502.333 115.217 502.78 114.843 503.224 114.469C506.647 110.492 510.279 105.47 513.029 101.329C518.199 93.8724 524.594 81.6686 526.961 72.7926C527.603 70.5791 528.146 67.7598 528.624 65.5757C529.297 62.3849 529.787 61.6591 530.338 57.531C531.493 50.4239 530.449 36.9553 528.788 30.4421C528.363 28.4657 528.235 27.5089 527.896 26.1958C526.41 20.6071 524.685 16.1355 522.446 11.002C519.464 5.6853 519.324 6.52792 518.083 5.09391C517.157 4.03697 514.28 0.755592 513.699 0.392072C513.308 0.133433 513.988 1.61216 513.486 1.21789C517.173 7.33097 518.548 9.63844 521.213 14.7703C525.435 24.3199 527.915 34.5933 528.219 45.0666C528.36 46.0056 528.484 46.9511 528.591 47.9116C528.591 47.9116 528.592 47.9116 528.592 47.9116C528.676 51.9544 528.208 53.6334 527.936 55.7742C527.086 77.0846 504.795 113.128 486.738 127.621C483.216 131.094 470.336 140.828 467.533 142.746C466.832 143.281 466.726 143.561 465.95 144.089C458.924 148.654 451.593 152.765 444.058 156.368C428.721 164.223 411.623 169.837 394.446 172.148C377.398 174.42 359.13 173.358 344.194 164.995C323.132 152.914 299.228 128.643 308.566 104.789C310.208 102.212 312.246 99.7848 314.697 98.4087C322.329 93.6583 331.537 104.319 335.694 111.139C336.012 111.646 336.288 112.09 336.526 112.488C336.988 113.351 337.953 113.508 338.678 112.85C340.457 111.201 341.731 109.926 345.093 107.939C345.095 107.849 345.098 107.759 345.1 107.67C348.639 105.629 351.082 104.443 355.36 103.572C357.131 103.231 360.574 103.113 363.02 105.048C365.49 106.857 366.794 110.147 367.304 111.623C367.852 113.298 367.782 112.566 368.194 114.196C368.523 115.577 368.867 117.801 369.037 120.31C369.196 122.404 368.68 124.681 368.073 126.359C367.09 129.602 363.648 134.546 361.747 136.435C355.031 143.556 345.433 149.122 335.931 153.462C333.228 154.71 329.873 156.219 328.971 156.548C327.238 157.19 326.747 157.175 325.599 157.557C319.828 159.527 310.601 162.225 304.775 163.385C285.602 167.405 264.755 168.295 245.227 167.126C232.919 166.566 212.607 163.626 201.444 161.299C199.027 160.822 199.63 161.146 197.591 160.702C195.305 160.199 194.199 159.807 193.153 159.554C191.159 159.068 188.477 158.397 185.467 157.601C177.755 155.46 167.653 154.006 162.507 154.111C161.122 154.107 160.157 154.272 159.368 154.291C158.967 154.301 157.98 154.225 156.692 154.304C145.304 155.097 136.713 158.679 128.748 166.706C115.688 180.068 110.426 200.92 97.9462 215.278C95.8891 217.722 93.1815 218.893 90.3593 218.166C86.1705 217 83.643 214.717 83.0931 214.372C81.9232 213.365 81.443 212.709 79.3537 210.525C72.5591 203.312 64.4591 192.517 58.3524 185.112C55.3871 181.445 51.2172 176.359 47.7799 173.088C45.2201 170.316 37.6908 165.145 35.9997 164.558C35.0833 164.066 34.6628 163.646 33.4493 163.199ZM118.027 186.978C117.393 187.378 120.975 181.498 119.885 183.843C119.633 184.364 118.183 186.868 118.027 186.978ZM345.128 105.464C345.133 105.346 345.138 105.227 345.144 105.109C345.965 104.67 346.805 104.252 347.654 103.869C347.212 104.159 346.783 104.455 346.352 104.763C345.938 104.992 345.54 105.22 345.128 105.464Z" fill="#FF9E84" fill-opacity="0.7"/>
</svg>
