<svg width="18" height="30" viewBox="0 0 18 30" fill="none" xmlns="http://www.w3.org/2000/svg">
<path d="M0.953169 29.9029C0.66606 29.7564 0.402388 29.4693 0.302779 29.1998C0.185591 28.9068 0.214888 28.4205 0.361372 28.1334C0.414107 28.0396 3.64262 25.0513 7.53325 21.5064C11.4239 17.9615 14.6055 15.0318 14.6055 15.0025C14.6055 14.9732 11.4239 12.0435 7.53325 8.4986C3.64262 4.95367 0.414107 1.96539 0.361372 1.87164C0.232466 1.61969 0.191451 1.12164 0.279341 0.857971C0.373091 0.576721 0.648482 0.260315 0.929732 0.113831C1.2227 -0.0326538 1.75004 -0.0326538 2.06645 0.113831C2.35356 0.248596 17.4825 14.024 17.6524 14.3111C17.7461 14.4634 17.7696 14.6099 17.7696 15.0142C17.7696 15.483 17.7579 15.5357 17.5938 15.7642C17.3301 16.1275 2.3477 29.7623 2.06645 29.8912C1.77348 30.0259 1.19926 30.0318 0.953169 29.9029Z" fill="#4A7AD4"/>
</svg>
