<svg width="6" height="10" viewBox="0 0 6 10" fill="none" xmlns="http://www.w3.org/2000/svg">
<path d="M0.056818 9.79545C0.139205 9.93182 0.269886 10 0.448864 10C0.53125 10 0.633523 9.98295 0.676136 9.96023C0.769886 9.90909 5.37784 5.29545 5.4233 5.20739C5.46307 5.12784 5.46307 4.87216 5.4233 4.79261C5.37784 4.70455 0.769886 0.090909 0.676136 0.039772C0.633523 0.017045 0.53125 0 0.448864 0C0.173295 0 0 0.173295 0 0.448863C0 0.53125 0.0142045 0.627841 0.03125 0.661932C0.0482955 0.696022 1.02273 1.6875 2.19886 2.8608L4.33239 5L2.19886 7.13636C1.02273 8.3125 0.0482955 9.30398 0.03125 9.33807C-0.0198865 9.44034 -0.00568199 9.69034 0.056818 9.79545Z" fill="#2B3746" fill-opacity="0.5"/>
</svg>
