<svg width="514" height="244" viewBox="0 0 514 244" fill="none" xmlns="http://www.w3.org/2000/svg">
<path d="M0.0153293 93.3392C-2.62555 93.6791 -6.43997 93.9379 -9.56657 94.4554C-22.2467 96.6739 -27.5601 97.9533 -38.6195 101.489C-56.6939 105.517 -100.413 134.127 -101.398 133.943C-101.398 133.943 -101.398 133.943 -101.398 133.943C-101.409 133.929 -101.415 133.911 -101.418 133.89C-101.473 133.489 -97.9472 130.382 -97.6159 129.674C-97.2853 128.97 -99.1924 127.175 -93.8594 123.284C-86.4637 117.56 -66.0499 106.87 -61.5462 105.032C-58.5355 103.581 -54.727 101.62 -50.5509 99.8916C-37.2479 94.5288 -30.1078 92.6224 -17.6163 89.2577C-12.5617 88.5425 -7.42515 88.0244 -2.23595 87.7226C4.45709 86.6893 14.4718 86.6406 18.6181 86.6422C21.9661 86.6071 23.9288 86.3789 27.4026 86.497C31.2926 86.6365 37.2368 87.2782 44.2964 88.1538C55.8131 89.7012 57.9317 89.6213 64.7975 91.0646C71.9063 92.6045 82.6213 96.1418 91.3472 99.2096C92.4597 99.5472 93.5701 99.8933 94.6784 100.248C93.9648 99.7885 93.2478 99.3326 92.5277 98.8802C96.9212 100.48 98.6532 101.564 102.587 103.259C107.206 105.279 109.668 106.092 112.727 107.572C115.232 108.789 118.478 110.723 121.661 112.412C126.291 114.894 125.458 114.029 127.96 115.355C129.052 115.723 146.871 126.623 147.748 127.443C155.13 132.53 155.401 133.417 161.085 137.769C176.675 149.837 191.893 163.503 204.284 176.856C209.899 182.889 215.362 189.369 220.335 195.825C211.327 186.494 228.035 209.628 223.169 199.944C228.394 207.32 232.545 212.261 237.171 219.554C240.068 224.194 241.919 227.661 245.848 234.612C252.785 246.695 259.502 260.928 259.432 265.359C265.533 280.925 266.662 295.425 267.64 301.774C267.951 306.265 264.957 317.722 261.686 321.955C260.812 324.051 253.013 333.21 242.641 334.869C232.469 337.104 221.957 335.036 219.405 334.633C213.347 333.657 204.303 331.036 199.571 329.477C193.304 327.412 189.546 327.5 180.284 321.63C177.349 320.329 174.818 319.142 172.51 318.022C165.726 314.623 162.279 312.784 154.873 307.337C153.215 306.063 153.196 305.734 152.27 304.999C150.415 303.529 146.649 300.484 143.84 297.234C138.662 291.239 137.704 287.052 137.3 288.133C134.837 283.534 133.36 278.573 133.021 273.329C133.092 271.489 133.298 269.744 133.625 267.965C133.748 265.203 134.168 262.469 134.783 259.871C134.872 261.545 135.988 257.778 137.374 254.38C138.613 251.231 139.922 248.238 138.221 250.823C142.962 241.973 148.915 234.922 155.733 227.972C155.487 229.583 170.797 213.649 169.032 214.604C169.835 213.912 170.649 213.218 171.476 212.523C179.173 206.51 185.729 201.2 195.251 194.842C204.772 188.59 204.295 189.177 207.355 187.838C209.537 186.387 211.764 184.932 214.035 183.474C225.589 174.583 224.338 178.241 244.935 165.325C252.177 162.401 268.642 153.129 279.983 147.22C281.26 146.549 281.196 146.367 282.902 145.461C287.03 143.248 298.287 138.127 297.668 137.755C301.557 136.104 305.349 134.523 309.264 132.905C312.345 131.356 315.46 129.805 318.609 128.253C318.514 128.086 318.419 127.919 318.324 127.753C324.962 125.446 334.661 120.876 339.776 118.827C340.784 118.423 341.098 118.572 344.239 117.292C347.81 115.839 354.36 112.956 358.693 111.224C360.245 110.252 361.806 109.28 363.374 108.308C371.142 104.898 373.932 104.597 378.478 102.804C379.248 102.484 394.165 96.4192 395.006 96.0841C401.467 93.397 399.218 93.5066 418.458 86.225C421.948 84.9118 424.66 84.1206 427.73 82.9652C433.057 80.9416 449.477 74.2843 450.541 73.3987C457.211 71.5595 475.024 64.8743 480.263 63.2156C481.847 62.7108 482.319 62.9431 487.178 61.3162C491.109 59.997 501.185 56.1613 506.272 54.4686C511.547 52.7119 513.544 52.3702 515.922 51.5829C518.17 50.8392 520.158 49.8913 523.231 48.8541C532.866 45.6075 541.668 43.1222 549.232 40.6446C560.209 37.0504 569.765 33.1671 578.813 29.9291C581.112 29.2491 583.409 28.6917 585.814 27.9328C599.963 23.4699 614.606 18.9755 629.731 14.4537C647.506 9.1504 664.046 5.47241 680.705 3.26204C695.101 0.476681 731.534 2.34981 721.879 0.493454C727.148 -0.487987 763.545 5.87689 770.248 8.96326C776.966 11.0234 782.28 12.6604 787.461 14.7601C802.863 21.2024 813.27 26.9612 830.358 37.8017C834.796 40.6518 839.55 43.5533 842.062 45.3691C845.084 47.5504 848.109 50.2197 851.964 53.1805C861.072 60.0811 877.647 73.5408 886.096 80.6859C887.613 81.9641 887.949 82.6494 890.075 84.5466C898.368 91.9684 908.08 99.8974 906.988 97.7076C917.668 107.187 928.24 114.901 938.974 122.768C961.032 139.932 1004.93 165.081 1028.15 172.602C1042.16 177.483 1042.64 177.494 1063.53 183.713C1068.3 185.059 1073.15 186.366 1079.21 187.78C1092.32 190.878 1106.1 193.768 1116.45 193.92C1131.66 195.901 1145.05 196.384 1156.18 197.485C1157.55 197.311 1158.92 197.132 1160.3 196.946C1162.23 196.968 1164.17 196.978 1166.13 196.976C1166.74 197.172 1167.35 197.366 1167.96 197.559C1182.79 197.607 1198.81 195.996 1211.14 194.993C1230.77 193.927 1280.7 186.695 1299.32 182.751C1309.32 180.833 1310.03 180.219 1315.44 179.906C1317.52 179.384 1319.6 178.852 1321.7 178.31C1322.98 177.825 1324.26 177.335 1325.55 176.842C1337.61 174.033 1352.97 170.419 1364.78 167.168C1384.76 161.816 1418.67 150.827 1438.45 144.425C1443.68 142.756 1450.4 140.86 1455.62 139.029C1463.24 136.351 1464.87 135.101 1474.71 131.527C1490.73 125.759 1520.65 115.064 1536.66 108.49C1541.34 106.586 1543.54 105.432 1546.44 104.218C1558.98 98.9695 1569.53 94.5731 1581.9 88.8754C1595.63 83.6415 1594.84 84.8174 1599.38 83.7146C1602.83 82.8766 1613.35 79.7595 1615 79.5989C1616.15 79.4952 1612.62 81.5884 1614.18 81.3413C1597.7 88.9949 1590.74 91.6 1577.45 96.6386C1553.93 106.661 1529.06 116.786 1504.64 126.131C1502.36 126.765 1500.08 127.39 1497.81 128.007C1497.81 128.007 1497.81 128.006 1497.81 128.006C1488.5 131.241 1484.87 133.179 1480.03 135.093C1430.73 155.218 1332.97 183.65 1276.05 192.283C1264.87 194.524 1223.88 200.151 1215.79 200.157C1213.52 200.258 1212.86 199.967 1210.48 200.141C1189.55 201.993 1168.56 202.748 1148.03 202.148C1105.01 200.019 1060.9 192.339 1020.56 175.911C908.479 136.136 844.411 12.161 724.992 6.46229C703.016 4.97933 675.519 8.59736 654.437 13.5088C646.102 15.431 642.334 15.82 631.254 19.485C630.97 19.5808 630.681 19.6788 630.387 19.779C630.223 19.6728 630.06 19.5665 629.896 19.4603C619.958 22.6639 613.706 24.9344 602.668 28.4031C593.239 31.3426 568.723 39.1733 560.356 41.8613C556.062 43.2297 557.57 42.4447 553.588 43.7491C546.784 45.9745 532.408 51.1514 522.999 54.3471C514.547 57.1997 500.156 61.8257 493.647 64.163C470.45 72.4541 444.959 82.2431 420.424 91.5407C413.506 94.155 404.67 97.2307 402.573 98.0714C398.45 99.7204 397.434 100.503 394.593 101.684C380.395 107.561 358.306 116.268 344.749 122.158C299.936 141.58 253.654 163.841 212.721 189.709C187.523 205.426 144.008 237.535 139.057 264.944C138.084 270.648 137.891 269.048 137.964 273.829C138.377 279.157 139.75 281.727 140.681 283.995C144.213 293.847 159.29 306.445 174.716 313.526C185.955 318.993 193.648 322.095 201.035 324.773C204.185 325.908 206.281 326.855 208.063 327.372C209.078 327.658 210.656 327.924 214.051 328.715C227.327 331.701 239.657 332.311 249.08 327.101C258.647 321.911 262.39 309.987 261.56 296.919C255.897 245.586 216.617 195.073 177.219 158.607C168.401 150.598 162.414 145.228 161.088 144.173C158.199 141.938 156.091 140.761 150.066 136.528C130.1 122.187 100.711 106.406 78.2382 99.9649C67.2485 96.513 51.6803 93.6785 40.4602 92.6419C31.554 91.3611 10.1778 91.3014 6.34985 92.1161C3.95657 92.4405 2.88648 92.9688 0.0153293 93.3392ZM249.496 242.107C248.272 240.956 256.279 256.437 253.835 250.388C253.341 249.039 249.895 242.426 249.496 242.107ZM625.994 16.7483C625.786 16.6048 625.577 16.4614 625.369 16.3179C623.229 17.0546 621.092 17.7922 618.96 18.5307C620.207 18.2737 621.454 18.017 622.703 17.7606C623.799 17.4229 624.896 17.0855 625.994 16.7483Z" fill="#FF9E84"/>
</svg>
