<svg width="260" height="229" viewBox="0 0 260 229" fill="none" xmlns="http://www.w3.org/2000/svg">
<path d="M285.081 16.3474C286.227 16.5076 288.04 16.6115 289.166 16.7613C294.335 17.4632 296.359 17.7083 301.415 18.5686C309.38 19.7784 329.979 25.0094 330.77 24.3775C330.77 24.3774 330.77 24.3774 330.77 24.3774C330.772 24.3689 330.772 24.3596 330.77 24.3497C330.731 24.161 328.832 23.4727 328.595 23.2125C328.36 22.9529 328.874 21.7837 326.167 21.028C322.183 19.902 313.138 18.1686 311.268 17.7827C309.922 17.4866 308.484 17.0696 306.476 16.6501C300.399 15.3938 297.364 14.9632 292.372 13.8904C290.298 13.7479 288.532 13.6665 286.123 13.5324C283.2 13.0854 278.968 12.8946 277.345 12.7615C276.001 12.6451 275.232 12.4609 273.87 12.3705C273.107 12.3203 272.146 12.2998 271.051 12.283C269.817 12.2598 268.334 12.2398 266.819 12.2053C261.869 12.1224 261.093 11.8544 258.323 11.9277C255.808 11.9819 250.314 12.6666 246.814 13.205C246.349 13.2493 245.889 13.2971 245.433 13.3484C245.738 13.2034 246.048 13.0599 246.36 12.918C244.489 13.2289 243.932 13.518 241.989 13.9907C239.831 14.5375 238.751 14.7071 237.4 15.1492C236.296 15.5142 234.9 16.1641 233.592 16.7094C231.53 17.5925 231.861 17.2589 230.738 17.7638C230.091 17.8192 222.781 22.4921 222.437 23.1278C219.549 25.7602 219.62 26.1613 217.724 28.5926C212.574 35.5021 210.324 44.0411 209.84 51.8528C209.616 55.1569 209.727 58.9113 210.056 62.2524C210.27 57.0002 211.84 68.4775 210.39 64.2623C210.94 67.9534 211.124 70.7951 211.833 74.1853C212.314 76.4257 212.785 77.9649 213.584 81.2165C214.933 86.7445 216.531 93.1101 217.731 94.3952C219.712 100.908 222.075 106.34 222.345 108.857C222.933 110.515 224.957 114.566 225.754 116.36C226.452 118.074 232.27 131.15 233.244 133.21C234.197 135.326 235.916 139.099 236.667 140.881C237.612 143.122 237.721 144.977 240.287 148.672C242.337 153.282 243.145 154.97 245.194 159.251C245.561 160.018 245.706 160.055 245.909 160.503C246.326 161.426 246.939 162.992 247.718 164.771C248.961 167.615 249.829 169.026 249.358 168.88C250.041 170.618 250.814 172.609 251.509 174.491C251.84 175.115 252.163 175.729 252.478 176.332C252.795 177.357 253.019 178.159 253.37 179.34C253.392 178.617 254.037 180.181 254.441 181.526C254.851 182.878 255.04 184.032 254.546 182.993C255.74 186.373 257.04 190.498 256.745 193.636C257.093 193.379 256.87 195.749 255.479 196.34C253.845 197.109 252.171 196.425 252.485 196.343C252.107 196.312 251.694 196.255 251.248 196.171C247.886 195.669 244.274 193.879 240.424 192.008C238.332 190.972 237.215 190.375 236.534 190.062C235.894 189.773 235.636 189.726 234.919 189.488C233.947 188.921 232.975 188.36 232.004 187.804C227.202 184.297 227.632 185.987 218.914 180.823C215.834 179.79 208.917 176.107 204.183 173.79C203.638 173.521 203.668 173.43 202.945 173.068C201.185 172.18 196.53 170.268 196.788 170.052C195.129 169.428 193.475 168.82 191.827 168.226C190.529 167.623 189.234 167.029 187.942 166.445C187.985 166.359 188.027 166.273 188.07 166.187C185.331 165.421 181.048 163.621 178.954 162.924C178.533 162.783 178.396 162.871 177.097 162.428C175.588 161.912 172.779 160.855 170.918 160.251C170.254 159.864 169.59 159.479 168.928 159.097C165.687 157.907 164.431 157.909 162.525 157.324C162.192 157.205 155.782 155.188 155.457 155.099C152.644 154.217 153.678 154.093 145.356 151.925C143.889 151.553 142.683 151.362 141.372 151.039C139.133 150.461 131.937 148.565 131.475 148.244C128.668 147.917 120.799 146.315 118.599 146.072C117.915 145.988 117.758 146.148 115.59 145.854C113.836 145.609 109.433 144.85 107.302 144.635C104.938 144.387 104.078 144.465 103.031 144.371C102.042 144.284 101.147 144.069 99.8177 143.957C95.7354 143.615 91.7096 143.615 88.5075 143.533C83.5786 143.408 79.5377 143.085 75.3427 143.127C74.3361 143.204 73.3622 143.346 72.3307 143.421C59.5182 144.393 44.4196 147.222 33.5118 155.226C30.9583 157.035 27.0861 160.957 25.1748 164.676C23.2006 168.34 22.683 171.238 22.7783 169.062C22.3356 170.067 21.2607 174.717 21.8932 179.298C22.4097 183.991 24.2599 188.369 24.7926 189.63C25.9363 192.351 26.9427 194.542 28.0835 196.491C31.7757 202.562 34.6834 206.13 40.4194 212.529C40.4556 212.569 40.4919 212.608 40.5282 212.648C42.1461 214.419 43.7472 216.221 44.6975 217.093C45.8431 218.149 47.1777 219.088 48.6243 220.239C50.7109 221.913 53.6401 224.001 56.4414 225.485C59.8936 227.327 62.8168 228.256 65.3996 228.7C66.3029 228.844 66.6427 228.746 67.8986 228.793C72.7506 229.127 78.0207 226.707 77.2625 227.563C82.9734 224.845 87.2458 220.301 90.226 215.746C97.3294 205.726 101.857 184.34 103.007 174.282C103.818 167.956 104.12 168.092 104.384 158.61C104.42 156.528 104.417 154.438 104.387 151.863C104.312 145.816 103.705 140.488 103.924 135.836C103.397 129.309 102.922 123.924 101.883 119.162C101.911 118.576 101.936 117.989 101.959 117.402C101.852 116.597 101.741 115.792 101.626 114.987C101.493 114.75 101.36 114.514 101.226 114.278C100.358 108.507 99.3617 101.204 98.2441 96.3931C96.6702 88.2476 90.0256 67.9554 86.47 60.9346C84.7447 57.2032 84.7801 56.8528 83.366 54.8948C82.9837 54.0421 82.5947 53.1948 82.1989 52.3531C82.0182 51.7922 81.8344 51.2328 81.6475 50.6749C79.2222 46.0014 75.7337 40.501 72.8402 36.4012C67.6193 28.6254 58.1699 18.1436 50.1776 13.0013C48.2425 11.685 45.6308 10.2679 43.6216 9.14991C40.6854 7.54995 40.0792 6.84591 36.1747 5.17444C29.4697 2.01525 15.5734 -0.0936437 8.85744 0.201265C6.79395 0.198724 5.80823 0.123323 4.3485 0.186563C-1.53886 0.483659 -6.35338 1.26081 -12.0545 2.41526C-17.716 4.15522 -17.1416 4.51883 -18.8196 5.42584C-20.0949 6.11354 -24.1099 8.25314 -24.6277 8.74878C-24.9869 9.07926 -23.3205 8.72066 -23.8443 9.13119C-16.7144 6.77411 -14.2173 5.9446 -8.55642 4.39553C2.12071 2.1964 12.6464 1.81128 23.3064 4.02652C24.2708 4.11339 25.2305 4.2203 26.1856 4.34712C26.1857 4.34688 26.1858 4.34666 26.1858 4.34641C30.2191 5.26571 31.7864 6.18204 33.8182 7.01577C55.1008 13.2472 81.1186 48.6657 87.9422 71.3632C89.8849 76.0205 94.3451 91.9707 95.1653 95.3644C95.418 96.2339 95.6432 96.4424 95.8631 97.3786C97.6535 105.77 98.9813 114.312 99.8549 122.811C102.122 140.299 102.166 158.74 99.7818 176.379C97.3711 192.338 93.7868 209.03 82.5897 220.524C70.59 233.097 52.6203 222.004 42.5126 210.558C32.3495 199.499 22.1941 185.877 25.2118 171.18C26.8793 162.394 36.7767 155.106 44.8271 152.032C48.1755 150.685 49.5986 149.885 54.3527 148.871C54.3852 148.786 54.4179 148.701 54.4508 148.616C58.5754 147.721 61.4258 147.378 66.0249 146.8C70.0871 146.192 80.6788 145.696 84.2132 145.772C86.0779 145.77 85.3814 145.623 87.142 145.654C89.9967 145.689 96.4985 146.211 100.406 146.582C104.087 146.885 110.288 147.479 113.095 147.924C123.202 149.455 134.162 151.963 144.662 154.673C147.594 155.421 151.413 156.319 152.284 156.581C154.036 157.101 154.513 157.428 155.692 157.806C161.774 159.729 171.087 162.663 176.839 164.822C195.692 171.782 215.028 180.937 232.52 190.706C233.397 191.195 234.321 191.714 235.283 192.26C238.694 194.174 241.195 195.532 245.045 197.15C246.014 197.548 246.937 197.89 247.812 198.175C248.726 198.464 249.351 198.663 250.681 198.931C251.83 199.151 252.876 199.236 253.838 199.168C254.864 199.125 256.424 198.687 257.333 197.855C261.028 193.612 258.954 189.248 258.387 185.969C257.409 182.289 256.355 179.523 255.312 176.842C254.407 174.58 254.465 175.261 253.665 173.276C252.753 171.041 252.322 169.713 251.935 168.779C248.97 161.581 242.047 146.461 238.931 139.912C238.344 138.685 237.796 137.841 237.457 137.091C237.285 136.712 236.99 135.812 236.459 134.606C231.856 124.101 228.464 116.412 224.426 105.911C217.157 86.1337 208.559 60.6882 215.265 39.3151C216.79 34.8407 218.471 31.9551 218.833 31.3952C219.683 30.1901 220.377 29.4683 222.397 27.3843C229.033 20.0385 243.014 15.6448 252.134 14.9511C257.545 14.3803 262.99 14.5028 268.188 14.6928C272.281 14.7884 280.407 15.3677 282.319 15.7205C283.354 15.9 283.813 16.169 285.081 16.3474ZM214.614 84.5125C214.742 83.7599 216.446 90.7319 215.52 88.1965C215.301 87.6216 214.566 84.7023 214.614 84.5125ZM55.2305 146.515C55.2743 146.403 55.3185 146.291 55.363 146.179C56.2742 146.014 57.1723 145.865 58.0975 145.724C57.5949 145.884 57.098 146.047 56.6068 146.213C56.1442 146.311 55.7238 146.403 55.2305 146.515Z" fill="#FF9E84"/>
</svg>
