<svg width="260" height="300" viewBox="0 0 260 300" fill="none" xmlns="http://www.w3.org/2000/svg">
<path d="M363.968 3.78782C365.366 3.94018 367.369 4.02506 369.047 4.23222C376.134 5.15395 378.689 5.56371 384.805 6.85153C394.427 8.34398 420.265 18.456 420.85 18.1078C420.85 18.1078 420.85 18.1077 420.85 18.1077C420.854 18.0996 420.855 18.0903 420.853 18.0797C420.828 17.8772 418.612 16.7102 418.35 16.3915C418.088 16.0743 418.829 15.0032 415.599 13.6025C410.832 11.4654 399.877 8.0631 397.162 7.32207C395.367 6.77518 393.195 6.03976 390.928 5.42829C383.531 3.48635 380.199 2.89988 373.235 1.48416C370.481 1.23449 367.76 1.06068 365.071 0.959924C361.565 0.517917 356.436 0.459314 354.16 0.405529C352.375 0.352034 351.334 0.211198 349.489 0.212275C347.42 0.215732 344.267 0.418366 340.595 0.645664C334.614 1.0575 333.322 0.935028 329.684 1.38824C325.843 1.88612 320.205 3.1337 315.365 4.25702C314.759 4.37241 314.154 4.49168 313.55 4.61474C313.954 4.42006 314.36 4.22705 314.767 4.03576C312.36 4.62234 311.385 5.07719 309.22 5.72598C306.678 6.50147 305.347 6.77893 303.661 7.35834C302.283 7.83463 300.467 8.63061 298.68 9.31619C296.087 10.3221 296.585 9.93116 295.187 10.4673C294.585 10.5949 284.561 15.1435 284.052 15.5134C279.852 17.7004 279.627 18.1455 276.381 20.049C267.406 25.3767 258.622 31.5548 251.233 37.7693C247.932 40.535 244.618 43.582 241.565 46.6119C246.861 42.3745 236.565 53.1944 239.807 48.5414C236.543 52.0178 234.022 54.2923 231.034 57.6972C229.112 59.9075 227.884 61.5249 225.219 64.7389C220.481 70.4327 215.388 76.7552 214.759 78.9315C209.604 85.9427 205.891 92.4564 203.698 94.8165C202.481 96.713 199.923 101.863 198.769 104.07C197.502 106.14 189.463 122.353 188.332 125.221C187.083 127.955 185.031 132.733 184.044 135.002C182.825 137.795 181.287 139.757 180.078 145.275C177.804 151.341 177.087 153.549 175.342 159.43C175.035 160.488 175.113 160.64 174.928 161.252C174.549 162.514 173.838 164.629 173.217 166.847C172.167 170.602 171.873 172.897 171.614 172.366C170.924 174.865 170.284 177.335 169.696 179.773C169.581 180.652 169.478 181.502 169.371 182.395C169.012 183.774 168.669 185.143 168.343 186.5C169.121 185.027 167.251 194.456 167.441 191.335C166.828 195.987 166.318 201.436 166.157 206.184C166.704 205.331 165.94 217.29 165.71 216.215C165.726 216.775 165.746 217.331 165.772 217.881C166.22 222.961 166.42 227.285 168.347 233.56C170.371 239.24 170.575 238.71 171.678 240.277C172.41 241.577 173.224 242.758 174.125 243.809C176.588 247.057 178.322 247.673 180.452 248.381C182.658 248.93 185.639 249.854 192.21 248.491C196.118 247.216 205.022 242.615 210.462 238.337C211.132 237.834 211.2 237.904 212.11 237.208C214.173 235.682 218.568 231.538 218.682 231.822C220.271 230.226 221.896 228.527 223.559 226.721C225.008 225.334 226.048 224.33 227.322 223.058C227.385 223.13 227.449 223.202 227.513 223.274C229.663 220.535 233.674 216.196 235.616 213.771C235.968 213.335 235.983 213.149 236.909 211.973C237.001 211.857 237.099 211.733 237.205 211.598C238.712 209.765 240.898 206.477 241.72 204.367C242.288 203.444 242.783 202.509 243.205 201.559C244.417 197.063 243.708 195.335 243.221 192.693C243.187 192.47 242.623 190.076 241.601 188.107C240.608 186.06 239.1 184.126 238.945 183.928C236.56 181.256 237.806 180.89 228.919 174.704C227.279 173.648 225.766 172.886 224.16 172.004C221.852 170.575 212.824 166.323 212.478 166.022C209.098 164.895 199.303 161.558 196.584 160.947C195.719 160.731 195.493 160.851 192.803 160.171C190.529 159.583 185.159 158.122 182.412 157.562C179.498 156.956 178.395 156.904 177.061 156.647C175.816 156.411 174.582 156.041 172.976 155.746C167.822 154.802 162.951 154.255 158.654 153.664C152.708 152.847 147.358 151.868 142.172 151.212C140.913 151.119 139.682 151.092 138.362 150.983C121.848 149.589 103.296 149.266 86.7277 150.026C79.0397 150.225 60.0485 152.46 65.05 151.156C62.3757 151.121 43.0689 153.933 39.5127 154.7C35.955 155.311 32.9162 155.729 30.0789 156.301C21.5664 158.063 15.3721 159.617 5.28051 162.576C2.63065 163.363 -0.31745 164.172 -1.85505 164.722C-3.72313 165.386 -5.64804 166.284 -7.97862 167.216C-13.7575 169.428 -23.8642 174.202 -29.0016 177.467C-29.9173 178.03 -30.1597 178.358 -31.4137 179.215C-36.1703 182.398 -41.5933 186.895 -40.9247 185.709C-46.5308 190.691 -51.7454 195.954 -55.6047 201.99C-65.8285 214.407 -65.5191 243.934 -60.2385 255.818C-57.4137 263.915 -58.0097 263.565 -52.2348 274.351C-50.9089 276.716 -49.2959 279.39 -47.7307 281.831C-44.3765 287.086 -40.5633 291.999 -37.3544 296.658C-36.839 297.408 -36.3546 298.143 -35.9043 298.865C-30.467 305.966 -27.1721 310.733 -23.0845 315.856C-22.7284 316.547 -22.3779 317.233 -22.033 317.913C-21.4338 318.788 -20.8451 319.653 -20.2667 320.508C-20.0052 320.72 -19.7446 320.931 -19.4848 321.142C-15.5707 326.832 -10.4923 335.554 -7.65723 340.428C-2.31238 349.169 11.3128 374.429 6.27042 382.887C5.30351 384.787 4.15102 385.419 3.34839 385.898C2.53132 386.333 1.96473 386.642 0.590147 387.159C-0.646965 387.367 -1.5002 387.394 -2.66969 387.379C-3.37456 387.289 -4.10426 387.165 -4.85862 387.008C-11.274 386.458 -18.7178 383.854 -24.6502 381.223C-35.2885 376.634 -50.1631 367.185 -59.7362 360.424C-62.1609 358.745 -65.2281 356.705 -67.5058 354.944C-70.8138 352.37 -71.4299 351.49 -75.5182 348.097C-82.6325 342.325 -95.2556 330.748 -100.677 324.028C-102.35 322.032 -102.987 321.036 -104.038 319.671C-108.569 313.656 -111.857 308.737 -114.308 302.092C-116.974 295.13 -116.643 295.884 -117.324 293.48C-117.503 292.563 -117.713 290.838 -117.523 289.052C-117.364 287.291 -116.806 285.696 -116.712 285.264C-116.6 284.636 -117.832 286.532 -117.639 285.688C-121.355 295.277 -118.331 299.942 -115.276 306.644C-108.995 319.269 -99.3339 329.701 -89.357 339.373C-88.3494 340.181 -87.3472 340.968 -86.3547 341.732C-86.3545 341.732 -86.3544 341.731 -86.3542 341.731C-82.3683 345.217 -80.7691 346.946 -78.6487 348.841C-68.3447 357.984 -51.9125 370.475 -33.344 380.029C-23.9696 384.707 -14.2967 389.087 -3.98543 389.78C0.775258 390.19 7.15293 388.262 8.8695 383.38C9.88767 380.764 9.94782 379.024 9.87983 376.505C9.77343 374.426 9.46696 372.59 8.98383 370.494C8.01899 363.764 -1.34454 344.979 -4.20301 340.859C-4.91325 339.727 -5.1169 339.721 -5.73157 338.694C-11.154 329.339 -17.0761 320.265 -23.6056 310.835C-27.1671 305.927 -31.0389 300.672 -35.2469 295.079C-45.5365 281.255 -53.5089 267.902 -58.3702 251.995C-69.3648 222.368 -50.7981 190.601 -23.5047 177.609C3.1086 163.327 33.6719 157.346 63.5524 154.221C75.2214 153.019 90.0035 152.439 101.451 152.339C106.207 152.296 108.215 152.02 114.499 152.376C114.567 152.304 114.635 152.231 114.702 152.158C120.195 152.406 123.578 152.714 129.788 153.11C134.954 153.385 148.589 154.669 153.092 155.262C155.421 155.539 154.574 155.29 156.728 155.575C160.46 156.055 168.586 157.503 173.509 158.453C178.338 159.331 185.98 160.867 189.482 161.804C202.107 165.134 215.867 169.748 227.398 177.095C230.445 178.974 234.369 182.198 235.068 183.024C236.583 184.631 236.791 185.199 237.718 186.504C239.896 189.582 241.657 194.062 240.957 198.592C240.253 203.348 237.87 207.116 235.112 210.466C235.031 210.562 234.952 210.657 234.873 210.751C226.005 221.223 217.53 230.338 206.864 238.269C197.245 245.735 181.5 252 174.56 240.654C165.369 227.338 168.676 199.137 171.385 184.892C171.998 181.619 171.626 182.507 172.178 179.911C172.802 177.049 173.314 175.496 173.655 174.136C175.84 164.584 182.703 144.541 186.292 136.008C186.924 134.41 187.276 133.196 187.685 132.243C187.892 131.76 188.454 130.711 189.135 129.199C195.223 115.844 200.127 106.425 207.596 94.1919C221.882 70.8134 242.932 46.2957 266.505 29.7967C271.602 26.1885 275.145 23.7415 275.896 23.282C277.558 22.2948 278.712 21.8154 282.161 19.9755C293.55 13.7425 309.975 7.45993 322.173 5.25167C328.016 4.05028 336.689 3.20507 342.446 2.99501C347.08 2.64383 358.737 2.8502 360.626 3.20214C361.884 3.36072 362.451 3.62188 363.968 3.78782ZM222.553 68.3012C223.336 67.8184 217.562 74.8506 219.491 72.0305C219.917 71.3882 222.338 68.4161 222.553 68.3012ZM116.304 150.339C116.39 150.243 116.476 150.146 116.562 150.05C117.751 150.128 118.938 150.211 120.122 150.299C119.454 150.332 118.784 150.367 118.115 150.403C117.512 150.38 116.908 150.359 116.304 150.339Z" fill="#FF9E84"/>
</svg>
