<svg width="11" height="14" viewBox="0 0 11 14" fill="none" xmlns="http://www.w3.org/2000/svg">
<path d="M5.26151 0.442318C5.1542 0.500324 0.0756855 7.02611 0.0263796 7.16823C-0.0519299 7.39156 0.0495824 7.64389 0.258408 7.7367C0.374422 7.79181 0.467233 7.79471 2.07113 7.79471H3.75913V11.3273V13.21L3.82584 13.3376C3.86064 13.4101 3.93315 13.4971 3.98826 13.5319L4.08687 13.5986H5.49934H6.91181L7.01043 13.5319C7.06553 13.4971 7.13804 13.4101 7.17575 13.3376L7.23955 13.21V11.3273V7.79471H8.92756C10.575 7.79471 10.6185 7.79471 10.7374 7.7338C10.9491 7.63229 11.0506 7.38866 10.9752 7.16823C10.923 7.02031 5.87059 0.529326 5.74877 0.453918C5.63856 0.38721 5.37463 0.381411 5.26151 0.442318Z" fill="#8A8C99"/>
</svg>
