<svg width="14" height="14" viewBox="0 0 14 14" fill="none" xmlns="http://www.w3.org/2000/svg">
<path d="M6.82853 0.0133171C6.63882 0.042503 6.35061 0.217619 6.24846 0.367197C6.20833 0.429217 5.74865 1.38141 5.23425 2.48318C4.7162 3.5813 4.25287 4.53349 4.20545 4.59551C4.07411 4.77427 3.82603 4.87642 3.58889 4.85818C3.40283 4.84359 3.32622 4.79981 2.39592 4.17961C1.84868 3.81479 1.33793 3.49374 1.26496 3.46091C1.0789 3.38429 0.706782 3.39159 0.52437 3.4755C0.334661 3.55941 0.148601 3.74547 0.0646914 3.93518C-0.0702936 4.23069 -0.0557006 4.32189 0.725023 7.33899C1.12998 8.89314 1.49115 10.2284 1.53128 10.305C1.62614 10.4947 1.85233 10.71 2.06758 10.8158L2.23904 10.9033H7H11.761L11.9324 10.8158C12.1477 10.71 12.3739 10.4947 12.4687 10.305C12.5088 10.2284 12.87 8.89314 13.275 7.33899C14.0557 4.32189 14.0703 4.23069 13.9353 3.93518C13.8514 3.74547 13.6653 3.55941 13.4756 3.4755C13.2932 3.39159 12.9211 3.38429 12.735 3.46091C12.6621 3.49374 12.1513 3.81479 11.6041 4.17961C10.6738 4.79981 10.5972 4.84359 10.4111 4.85818C10.174 4.87642 9.92589 4.77427 9.79455 4.59551C9.74713 4.53349 9.28015 3.574 8.75845 2.46494C8.23675 1.35587 7.76613 0.392734 7.71506 0.323418C7.6129 0.188433 7.30645 0.02791 7.10945 0.00602055C7.04013 -0.00492418 6.91244 -0.00127586 6.82853 0.0133171Z" fill="white"/>
<path d="M1.67624 12.8265C1.45369 12.9433 1.37343 13.0673 1.35519 13.319C1.34425 13.4978 1.35519 13.5525 1.42815 13.6583C1.47558 13.7277 1.57044 13.8225 1.6361 13.8663L1.76014 13.9502H7.00267H12.2452L12.3692 13.8663C12.4349 13.8225 12.5298 13.7277 12.5772 13.6583C12.6501 13.5525 12.6611 13.4978 12.6501 13.319C12.6319 13.0673 12.5516 12.9433 12.3291 12.8265L12.1686 12.7463H7.00267H1.83676L1.67624 12.8265Z" fill="white"/>
</svg>
