<svg width="513" height="400" viewBox="0 0 513 400" fill="none" xmlns="http://www.w3.org/2000/svg">
<path d="M-661.848 14.4664C-664.528 13.5848 -668.089 12.1741 -671.467 11.229C-685.199 7.62448 -690.106 6.72015 -702.809 6.10756C-712.001 5.5974 -730.851 7.74502 -745.548 14.5296C-760.434 20.9394 -771.418 30.096 -772.16 29.4418C-772.16 29.4418 -772.16 29.4417 -772.16 29.4417C-772.171 29.428 -772.178 29.4105 -772.18 29.3891C-772.242 28.9677 -768.512 25.5786 -768.142 24.8541C-767.77 24.1387 -769.754 22.2939 -763.951 18.2305C-756.207 11.9649 -732.591 3.48892 -727.145 3.05759C-723.496 2.24653 -718.998 1.27753 -714.241 0.828351C-699.048 -0.359417 -690.657 0.85204 -677.237 2.99097C-671.946 4.49621 -666.384 6.42545 -661.533 8.40376C-654.871 10.3892 -644.608 15.2115 -640.867 17.0009C-637.716 18.4594 -635.756 19.1327 -632.458 20.8094C-628.833 22.6513 -622.961 26.1404 -616.669 29.8811C-606.24 36.1619 -603.999 36.9788 -597.668 41.1769C-591.298 45.4374 -582.039 52.6969 -573.979 58.7977C-572.93 59.5326 -571.939 60.2275 -570.953 60.9235C-571.531 60.2458 -572.071 59.6001 -572.687 58.8971C-568.806 61.8883 -567.423 63.4582 -563.939 66.3415C-559.848 69.7445 -557.546 71.2825 -554.787 73.6512C-552.553 75.5711 -549.545 78.5391 -546.771 80.9803C-542.654 84.6159 -543.299 83.5437 -541.043 85.4821C-540.161 86.1421 -523.649 101.253 -522.843 102.116C-516.066 108.613 -515.838 109.576 -510.485 114.924C-495.58 129.864 -480.454 145.137 -467.222 159.18C-461.299 165.462 -455.177 172.198 -449.471 178.618C-459.556 169.452 -440.173 192.4 -446.171 182.687C-439.963 190.004 -435.023 194.693 -429.041 201.555C-425.172 206 -422.679 209.241 -417.12 215.519C-407.316 226.595 -395.848 238.425 -394.163 242.566C-382.569 255.369 -372.731 267.316 -367.683 271.043C-364.743 274.244 -357.473 283.565 -354.196 287.364C-351.229 290.932 -326.533 318.441 -322.597 322.464C-318.404 326.945 -311.06 334.592 -307.511 338.019C-303.1 342.28 -298.928 344.625 -291.877 353.621C-282.53 362.361 -278.839 365.822 -269.848 373.838C-268.226 375.267 -268.194 375.597 -267.238 376.402C-265.353 377.987 -261.642 380.838 -257.813 383.799C-251.57 388.62 -248.438 391.35 -248.669 390.281C-244.844 392.876 -239.857 396.064 -235.619 398.46C-234.188 399.492 -232.766 400.485 -231.353 401.439C-229.154 402.488 -226.369 403.769 -223.842 404.791C-225.551 404.568 -221.899 406.495 -218.623 407.697C-215.338 408.92 -212.447 409.511 -215.051 408.283C-205.862 411.82 -196.402 413.663 -187.077 412.008C-187.619 412.735 -182.448 411.891 -177.867 409.351C-173.06 406.795 -169.827 403.293 -170.684 403.603C-169.87 402.951 -169.064 402.259 -168.266 401.527C-166.466 399.982 -164.755 398.242 -163.092 396.285C-161.65 394.591 -160.346 392.863 -158.988 390.872C-156.401 387.144 -153.206 381.339 -151.022 376.814C-146.155 366.371 -146.582 366.931 -144.699 363.568C-144.302 362.4 -143.911 361.21 -143.524 359.997C-142.995 358.332 -142.45 356.677 -141.89 355.033C-137.887 340.232 -137.11 343.573 -126.431 319.892C-121.822 313.012 -111.568 295.406 -103.338 284.553C-102.402 283.285 -102.538 283.145 -101.284 281.462C-98.2962 277.304 -89.4564 267.585 -90.1735 267.546C-86.9942 264.292 -83.7442 261.125 -80.4298 258.044C-77.8905 255.333 -75.2981 252.671 -72.6593 250.061C-72.8035 249.933 -72.9478 249.806 -73.092 249.679C-67.2141 245.02 -58.4193 237.257 -53.7432 233.824C-52.8176 233.138 -52.4665 233.18 -49.5886 231.062C-46.2382 228.584 -39.9743 223.929 -35.8081 221.201C-34.3766 219.866 -32.9322 218.542 -31.4756 217.23C-24.1121 212.22 -20.971 211.27 -16.4564 208.648C-15.6869 208.086 -0.714794 199.719 0.163601 199.357C6.90564 195.854 4.43809 195.856 24.6053 187.032C28.2058 185.509 31.2054 184.516 34.4678 183.221C40.2666 180.781 57.7584 174.138 59.0998 173.309C66.5152 171.391 85.9571 165.859 91.8593 164.82C93.6196 164.478 94.0969 164.731 99.4689 163.678C103.953 162.765 115.234 160.401 120.819 159.672C126.893 158.839 129.062 158.922 131.746 158.621C134.276 158.348 136.572 157.838 139.978 157.522C151.061 156.511 160.617 156.57 169.381 156.599C181.57 156.654 192.665 156.681 203.286 157.867C205.866 158.292 208.337 158.863 210.945 159.35C227.558 162.533 245.342 167.909 259.928 179.305C274.909 190.197 282.365 210.781 278.235 227.687C276.795 244.538 251.671 275.602 259.347 268.038C258.296 269.639 254.495 274.698 248.798 281.028C239.444 291.303 228.775 304.497 225.961 308.377C221.69 314.103 218.456 319.31 215.308 324.128C206.116 338.669 199.223 349.463 193.157 369.473C191.74 374.393 190.946 380.488 190.607 383.458C190.155 386.959 189.501 391.366 189.829 396.071C189.245 408.123 201.567 426.941 211.74 432.097C213.579 433.288 213.878 433.853 216.366 435.335C226.65 441.425 239.201 444.245 237.335 442.785C251.378 447.141 265.443 448.131 279.665 448.734C309.17 450.62 362.976 444.505 388.843 439.202C404.321 436.154 404.728 435.729 427.984 431.242C433.126 430.225 438.325 429.197 444.79 427.821C460.63 424.425 472.98 422.174 484.461 418.171C501.885 413.894 513.363 410.493 526.15 407.727C527.539 407.117 528.933 406.504 530.331 405.887C532.369 405.293 534.417 404.692 536.475 404.085C537.172 404.084 537.87 404.082 538.569 404.079C552.497 400.058 570.16 393.801 582.62 389.849C602.256 383.801 654.206 366.574 673.125 359.999C683.341 356.514 683.871 355.871 689.949 354.593C692.098 353.754 694.254 352.91 696.418 352.061C697.721 351.388 699.026 350.714 700.335 350.037C712.899 345.452 728.254 340.057 740.767 335.32C762.315 327.206 796.301 313.4 817.909 305.08C823.385 302.981 830.393 300.575 835.812 298.375C843.709 295.165 845.384 293.795 855.538 289.623C873.351 282.323 904.368 270.152 921.132 262.933C926.021 260.835 928.225 259.633 931.619 258.154C945.281 252.188 956.403 247.403 969.591 241.254C984.159 235.566 983.284 236.802 988.077 235.575C991.709 234.642 1002.77 231.291 1004.49 231.106C1005.69 230.982 1001.96 233.154 1003.6 232.878C986.24 240.904 978.871 243.73 964.766 249.237C939.714 260.149 913.095 271.529 887.623 282.183C885.216 282.946 882.815 283.704 880.421 284.457C880.421 284.456 880.421 284.456 880.42 284.455C870.631 288.243 866.658 290.5 861.168 292.899C810.362 315.442 708.079 353.941 650.015 373.435C638.458 377.5 596.408 391.752 588.55 393.772C586.301 394.389 585.491 394.285 583.055 395.04C561.138 402.175 541.078 408.426 519.029 414.853C474.866 426.699 429.379 438.316 383.717 446.031C324.51 454.198 260.609 466.771 205.996 435.098C177.612 416.97 181.143 376.721 193.809 351.193C206.328 323.481 224.831 299.527 244.424 277.168C247.392 273.809 250.117 270.521 252.609 267.306C266.977 249.726 280.94 219.733 269.965 199.689C265.74 191.799 263.488 188.006 253.583 181.168C253.561 180.971 253.538 180.774 253.515 180.576C244.395 174.785 238.018 172.342 226.126 168.634C216.644 165.197 189.349 161.485 180.064 161.457C175.234 161.244 177.119 161.025 172.712 160.937C165.096 160.728 148.936 161.684 138.398 162.825C129.055 163.655 113.059 165.798 105.893 167.312C80.0368 172.451 52.5704 181.243 26.7819 192.265C19.6215 195.279 10.4989 199.284 8.34037 200.393C4.10841 202.532 3.01783 203.506 0.218003 205.032C-14.0284 212.628 -35.5286 225.871 -47.9606 235.698C-89.0906 266.902 -123.265 312.036 -139.126 361.073C-139.164 361.185 -139.201 361.298 -139.239 361.411C-145.193 378.172 -152.608 399.035 -172.681 411.828C-193.436 424.296 -217.065 414.631 -230.191 407.65C-235.983 404.48 -234.106 405.061 -238.843 402.247C-244.028 399.07 -247.253 397.126 -249.53 395.57C-266.22 384.796 -298.186 355.303 -310.918 341.577C-313.331 339.051 -314.903 336.999 -316.383 335.473C-317.131 334.699 -318.971 333.093 -321.354 330.631C-341.899 309.32 -356.343 292.951 -375.577 271.164C-412.41 229.363 -454.769 180.637 -495.235 138.489C-503.986 129.365 -509.788 122.751 -511.07 121.475C-513.874 118.7 -515.946 117.186 -521.678 111.738C-540.836 93.4079 -566.979 69.5806 -587.43 54.7314C-597.12 47.5178 -611.954 38.0848 -622.105 32.3733C-630.731 27.0863 -650.821 17.4065 -655.216 16.2443C-657.689 15.4339 -658.955 15.4197 -661.848 14.4664ZM-411.471 222.428C-413.162 221.552 -400.577 234.979 -404.857 229.552C-405.829 228.321 -411.047 222.636 -411.471 222.428ZM252.883 175.704C252.837 175.442 252.79 175.179 252.741 174.917C250.681 173.744 248.533 172.639 246.296 171.599C247.478 172.331 248.627 173.08 249.74 173.846C250.812 174.449 251.793 175.027 252.883 175.704Z" fill="#FF9E84"/>
</svg>
