<svg width="514" height="211" viewBox="0 0 514 211" fill="none" xmlns="http://www.w3.org/2000/svg">
<path d="M235.829 487.112C231.544 485.653 225.595 483.868 220.926 482.152C199.916 474.125 192.803 471.383 175.921 461.287C173.373 459.68 169.001 456.725 165.22 453.427C163.327 451.783 161.546 450.047 159.986 448.262C158.225 446.271 156.339 443.605 155.263 441.279C149.666 431.823 157.996 419.952 168.037 413.6C172.477 410.47 179.018 406.965 183.982 404.656C188.354 402.585 192.845 400.693 196.897 399.073C205.02 395.831 211.221 393.665 211.044 393.233C211.043 393.232 211.044 393.232 211.044 393.232C211.038 393.215 211.023 393.201 211 393.19C210.489 392.962 202.466 395.183 201.303 395.208C200.162 395.235 199.728 392.539 189.866 396.218C188.123 396.889 186.138 397.697 184.057 398.607C183.016 399.062 181.95 399.543 180.876 400.045C180.742 400.108 180.607 400.171 180.473 400.234C180.337 400.298 180.215 400.356 180.008 400.454C179.633 400.632 179.258 400.812 178.884 400.993C178.137 401.356 177.393 401.725 176.655 402.101C170.736 405.103 165.322 408.488 161.189 411.838C155.635 416.239 151.706 421.236 149.934 425.523C147.657 430.817 148.107 435.12 148.469 437.36C148.969 440.321 149.984 443.211 151.846 446.417C152.771 448.002 153.896 449.62 155.226 451.249C156.251 452.512 157.367 453.746 158.622 454.994C177.019 471.293 188.504 475.053 207.567 484.052C216.423 487.275 223.165 489.354 231.485 491.821C242.318 495.673 257.788 499.701 264.293 501.462C269.581 502.916 272.675 503.993 278.395 505.448C284.6 507.02 293.709 508.941 305.191 511.472C324.349 515.615 326.84 516.667 338.144 518.853C349.844 521.085 368.047 523.678 382.881 525.958C384.747 526.292 386.617 526.623 388.492 526.949C387.119 526.934 385.748 526.916 384.379 526.897C391.918 528.006 395.259 528.09 402.246 528.946C410.317 529.919 414.433 530.7 419.915 531.29C424.408 531.771 430.545 532.132 436.41 532.692C444.958 533.496 443.084 533.695 447.656 534.155C449.454 534.456 483.339 536.939 485.259 536.913C499.83 537.621 501.169 537.126 512.784 537.408C544.856 538.108 578.122 537.779 607.995 535.419C620.83 534.431 635.459 532.766 648.341 530.748C627.719 532.506 672.562 524.55 656.134 529.243C670.761 526.507 681.6 524.828 694.699 521.391C703.593 518.984 710.031 516.925 722.019 512.726C744.14 505.315 766.421 492.669 770.875 487.085C793.607 471.374 803.956 448.42 807.446 438.985C809.969 432.485 810.692 413.29 809.309 405.809C809.102 404.044 808.586 399.338 807.119 392.821C805.693 386.305 803.012 377.763 800.273 370.958C794.625 356.341 785.245 340.556 783.371 337.531C778.985 330.058 769.588 316.296 764.41 309.304C758.847 301.708 756.376 296.122 743.694 283.644C729.758 267.422 725.076 262.655 712.278 249.785C709.906 247.43 709.463 247.322 708.068 245.925C705.191 243.045 700.317 237.983 694.811 232.68C685.694 223.908 679.873 219.299 681.543 219.8C676.24 214.732 670.745 209.592 665.055 204.378C662.933 202.691 660.788 200.995 658.62 199.292C655.566 196.41 652.454 193.506 649.285 190.581C652.575 194.757 629.357 174.309 637.451 180.319C633.356 176.983 629.182 173.619 624.926 170.226C616.35 163.391 607.911 156.797 599.608 150.441C600.432 152.552 573.076 130.044 575.909 131.454C574.555 130.431 573.205 129.414 571.859 128.404C560.687 120.425 547.23 110.241 532.098 100.048C516.687 89.737 518.156 90.9993 513.268 88.4102C509.713 86.0236 506.544 83.9143 502.409 81.22C482.793 67.1151 484.866 70.9355 451.987 51.2242C438.942 45.1581 413.65 31.8921 392.943 23.5363C390.655 22.5988 390.682 22.4005 387.662 21.1836C380.136 18.0167 362.034 12.4475 362.666 12.092C355.519 10.1148 348.549 8.43942 341.755 7.05515C336.258 5.67368 330.865 4.48335 325.568 3.47894C325.627 3.29471 325.686 3.11047 325.745 2.92629C313.931 1.41995 295.774 -0.170092 287.411 0.177941C285.564 0.23083 285.131 0.438734 279.485 0.726324C272.833 1.02086 261.098 2.20215 253.737 3.78618C250.671 4.07563 247.633 4.44502 244.622 4.89356C231.082 8.27932 227.201 10.8504 219.621 14.0585C218.017 14.1819 194.703 26.8376 193.793 28.0337C184.457 34.793 185.157 31.0858 161.066 54.5577C156.896 58.8813 153.626 62.8636 150.215 66.8792C143.835 73.7398 126.59 97.4305 125.281 99.0787C119.148 109.118 104.086 136.067 100.291 144.645C99.1064 147.183 99.1153 147.938 95.612 155.519C92.7567 161.597 85.1759 177.897 81.9468 185.883C78.4726 194.355 77.5548 197.559 76.0353 201.41C74.6056 205.057 73.0377 208.332 71.1024 213.351C65.1579 228.801 60.4184 243.141 56.0387 255.54C49.7485 273.377 43.6062 289.096 38.1952 304.002C36.9779 307.75 35.8928 311.469 34.5716 315.379C18.1757 363.818 0.0479059 418.371 -21.4334 464.843C-30.3346 487.167 -61.0877 537.12 -54.2119 522.919C-57.7597 530.842 -96.707 575.574 -107.806 579.9C-117.08 586.161 -125.201 589.944 -133.343 593.288C-152.5 600.802 -168.013 603.68 -190.157 603.346C-196.506 603.177 -203.132 602.812 -210.168 602.139C-218.183 601.401 -227.532 599.715 -232.361 598.868C-238.327 597.844 -244.281 597.035 -252.138 595.045C-270.043 591.23 -302.068 576.833 -316.202 566.239C-318.872 564.399 -319.993 564.008 -323.748 561.308C-338.535 550.846 -352.222 535.645 -349.036 537.626C-365.313 521.104 -377.102 502.899 -387.787 484.216C-411.482 444.999 -439.13 365.771 -452.67 328.03C-461.37 304.269 -460.314 304.534 -475.169 270.247C-478.572 262.615 -482.027 255.199 -486.529 246.125C-497.008 224.981 -508.749 206.583 -518.289 191.278C-533.653 169.829 -548.162 154.312 -563.683 142.313C-565.328 140.663 -566.985 139.049 -568.659 137.468C-571.184 135.468 -573.763 133.517 -576.395 131.615C-577.331 131.181 -578.27 130.753 -579.212 130.332C-597.856 116.879 -625.218 103.83 -643.722 98.664C-653.14 95.8622 -665.494 92.7748 -681.315 90.4317C-719.723 83.5549 -769.693 90.9895 -790.667 98.4136C-806.341 103.429 -807.322 103.65 -815.77 107.87C-819.197 109.201 -822.616 110.604 -826.002 112.066C-828.184 112.844 -830.357 113.647 -832.523 114.474C-851.694 123.514 -872.965 136.957 -889.328 148.601C-919.545 169.43 -960.782 205.668 -987.738 230.477C-994.461 236.627 -1002.85 244.622 -1009.54 250.45C-1019.5 259.052 -1022.08 260.534 -1035.06 271.05C-1056.54 289.427 -1101.61 318.983 -1128.67 321.694C-1136.41 322.974 -1140.11 322.935 -1145.52 323.068C-1168.23 323.223 -1186.59 317.125 -1205.35 306.237C-1225.91 294.49 -1223.94 295.583 -1230.66 291.671C-1235.34 288.952 -1249.08 278.493 -1251.4 276.816C-1252.97 275.83 -1248.4 280.855 -1250.52 279.401C-1229.47 299.179 -1218.74 306.395 -1197.64 316.309C-1157.84 336.903 -1108.92 327.543 -1072.76 304.417C-1069.38 302.129 -1066.33 299.939 -1063.14 297.577C-1063.14 297.577 -1063.14 297.576 -1063.14 297.576C-1049.35 288.051 -1043.66 284.169 -1036.49 278.789C-969.944 227.259 -849.547 98.8354 -750.1 94.9593C-737.521 92.9863 -706.553 91.8904 -682.155 96.0103C-667.688 98.1779 -656.904 100.891 -651.788 102.128C-648.254 102.993 -647.19 102.937 -643.535 104.028C-611.181 114.019 -581.221 131.433 -556.934 154.927C-505.539 203.014 -479.055 273.235 -454.844 339.117C-416.519 462.748 -340.747 617.63 -190.289 608.995C-133.189 612.102 -82.5343 576.042 -52.5922 530.842C-31.3276 500.821 -11.632 458.484 1.3255 425.083C6.65778 411.36 8.50735 404.983 15.5084 386.943C15.4378 386.7 15.3671 386.457 15.2964 386.214C21.2337 370.254 25.1705 359.937 31.3723 341.906C36.6469 326.575 50.2149 286.314 54.8804 272.821C57.2719 265.847 56.1055 268.347 58.3749 261.872C62.2311 250.816 71.1539 227.224 77.0692 212.145C82.3657 198.305 91.6 175.502 96.4444 165.206C113.471 128.412 135.344 89.3116 165.205 58.4317C173.319 49.8417 184.879 39.9848 187.938 37.8343C193.765 33.5461 195.769 32.6935 199.848 30.134C220.328 16.2608 257.626 5.08847 282.072 5.30231C361.024 3.57632 440.464 46.784 506.154 89.0896C537.499 109.241 584.166 143.792 621.45 174.466C632.83 183.753 642.689 192.056 650.736 198.947C658.295 205.446 656.553 203.417 662.69 208.845C669.428 214.838 672.72 218.208 675.703 220.966C699.375 241.971 745.23 290.602 760.313 312.046C763.887 316.756 766.501 319.944 768.415 322.704C769.379 324.098 771.388 327.364 774.128 331.64C796.864 368.987 813.613 402.983 799.187 444.679C758.316 523.805 640.245 527.934 555.068 531.885C535.404 532.273 522.065 532.534 519.32 532.493C513.298 532.354 509.455 531.898 497.211 531.331C456.628 529.593 401.985 524.49 363.978 518.123C344.736 515.044 319.813 509.877 300.956 505.507C286.78 502.511 251.749 493.262 246.235 491.078C242.212 489.694 240.482 488.697 235.829 487.112ZM734.836 507.405C732.373 508.089 758.067 496.249 748.75 501.257C746.773 502.469 735.65 507.344 734.836 507.405ZM13.4126 380.437C13.313 380.128 13.2134 379.819 13.1136 379.51C14.4331 376.067 15.7467 372.608 17.0554 369.137C16.4757 371.143 15.8944 373.145 15.3112 375.143C14.6798 376.911 14.047 378.676 13.4126 380.437Z" fill="#FF9E84"/>
</svg>
