<svg width="20" height="20" viewBox="0 0 20 20" fill="none" xmlns="http://www.w3.org/2000/svg">
<path d="M8.72599 0.0531788C4.1891 0.647154 0.609611 4.23446 0.0508036 8.7479C-0.0273512 9.38486 -0.0273512 10.6119 0.0508036 11.2489C0.433762 14.3477 2.28212 17.1183 5.01363 18.6931C6.04528 19.2871 7.13945 19.6779 8.37038 19.8928C9.05033 20.01 10.4923 20.0374 11.2113 19.9436C15.5176 19.4043 18.9643 16.2117 19.824 11.9718C20.0076 11.073 20.0545 9.68967 19.9412 8.7479C19.3785 4.21883 15.7912 0.631523 11.2348 0.0531788C10.6681 -0.0171604 9.28089 -0.0171604 8.72599 0.0531788ZM11.0745 1.42089C12.4383 1.60064 13.681 2.06566 14.8025 2.81986C15.7951 3.48808 16.6978 4.42985 17.3582 5.48103C18.5618 7.39973 18.9408 9.86161 18.3781 12.089C17.9873 13.6404 17.241 14.9534 16.096 16.0984C15.377 16.8135 14.7126 17.298 13.8412 17.7318C11.5708 18.865 8.93701 18.9432 6.60409 17.9467C5.57635 17.5051 4.72446 16.9229 3.89602 16.0984C3.1809 15.3793 2.69634 14.715 2.26259 13.8436C1.12934 11.5732 1.05119 8.93938 2.04766 6.60646C2.48923 5.57872 3.07149 4.72684 3.89602 3.8984C5.27936 2.51896 6.95578 1.68661 8.8823 1.4248C9.42547 1.35055 10.5157 1.35055 11.0745 1.42089Z" fill="#2B3746" fill-opacity="0.5"/>
<path d="M9.70327 4.03902C9.54306 4.12499 9.45318 4.21096 9.37502 4.35164C9.32032 4.45715 9.3125 4.74632 9.3125 7.32152V10.1742L9.40238 10.3305C9.46881 10.4438 9.97682 10.8698 11.2546 11.8897C12.7005 13.0464 13.0405 13.3004 13.1851 13.3316C13.6071 13.4293 14.0174 13.0933 14.0213 12.6517C14.0213 12.3469 13.9354 12.2609 12.2746 10.9362L10.7037 9.6818L10.6919 7.07534C10.6802 4.16798 10.6958 4.33601 10.4028 4.11327C10.2269 3.9765 9.88303 3.94133 9.70327 4.03902Z" fill="#2B3746" fill-opacity="0.5"/>
</svg>
