<svg width="150" height="23" viewBox="0 0 150 23" fill="none" xmlns="http://www.w3.org/2000/svg">
<g clip-path="url(#clip0_411_4180)">
<path d="M8.40014 7.4527H2.67491V17.2088H0V4.95471H11.0751V17.2088H8.40014V7.4527Z" fill="#FF4A36"/>
<path d="M13.6797 4.95466H16.3546V6.2979C16.9021 5.77945 17.4887 5.37884 18.1144 5.09605C18.7401 4.81327 19.444 4.67188 20.2262 4.67188C21.1022 4.67188 21.9078 4.83684 22.643 5.16675C23.3939 5.48096 24.0352 5.9287 24.567 6.50999C25.0989 7.07556 25.5135 7.75114 25.8107 8.53659C26.1079 9.30645 26.2565 10.147 26.2565 11.0581C26.2565 12.0008 26.0923 12.8648 25.7638 13.6504C25.4509 14.4201 25.0207 15.0879 24.4732 15.6534C23.9258 16.2033 23.2688 16.6353 22.5023 16.9496C21.7514 17.2637 20.9458 17.4208 20.0854 17.4208C19.3189 17.4208 18.6306 17.303 18.0205 17.0674C17.4105 16.8317 16.8552 16.5018 16.3546 16.0776V21.9219H13.6797V4.95466ZM19.6865 14.9229C20.2184 14.9229 20.7111 14.8365 21.1648 14.6636C21.634 14.4909 22.0408 14.2395 22.3849 13.9096C22.729 13.564 22.995 13.1555 23.1827 12.6841C23.386 12.1971 23.4878 11.6473 23.4878 11.0346C23.4878 10.469 23.4017 9.95059 23.2296 9.47923C23.0575 8.99221 22.8073 8.58374 22.4788 8.25384C22.1659 7.90819 21.7905 7.6411 21.3525 7.45265C20.9145 7.26412 20.4295 7.16983 19.8977 7.16983C19.0843 7.16983 18.3647 7.36618 17.739 7.75898C17.1289 8.1517 16.6675 8.62306 16.3546 9.1729V12.8962C16.6675 13.5561 17.1133 14.0588 17.692 14.4045C18.2708 14.7501 18.9357 14.9229 19.6865 14.9229Z" fill="#FF4A36"/>
<path d="M27.6406 11.0581C27.6406 10.1312 27.7971 9.28287 28.1099 8.51309C28.4228 7.72757 28.8686 7.05199 29.4474 6.48642C30.0262 5.92085 30.7145 5.48096 31.5123 5.16675C32.3101 4.83684 33.1938 4.67188 34.1637 4.67188C35.1179 4.67188 35.9939 4.83684 36.7917 5.16675C37.6051 5.48096 38.3012 5.92085 38.88 6.48642C39.4588 7.05199 39.9046 7.72757 40.2175 8.51309C40.546 9.28287 40.7102 10.1312 40.7102 11.0581C40.7102 11.9851 40.546 12.8413 40.2175 13.6268C39.9046 14.3966 39.4588 15.0643 38.88 15.6299C38.3012 16.1954 37.6051 16.6353 36.7917 16.9496C35.9939 17.2637 35.1179 17.4208 34.1637 17.4208C33.2095 17.4208 32.3335 17.2637 31.5357 16.9496C30.7379 16.6353 30.0496 16.1954 29.4708 15.6299C28.8921 15.0643 28.4384 14.3966 28.1099 13.6268C27.7971 12.8413 27.6406 11.9851 27.6406 11.0581ZM30.4094 11.0581C30.4094 11.608 30.4955 12.1186 30.6676 12.5899C30.8553 13.0612 31.1133 13.4697 31.4418 13.8153C31.7703 14.161 32.1614 14.4359 32.6151 14.6401C33.0843 14.8286 33.6006 14.9229 34.1637 14.9229C34.7268 14.9229 35.2352 14.8365 35.6888 14.6636C36.1581 14.4751 36.5571 14.2159 36.8856 13.886C37.2141 13.5404 37.4721 13.1319 37.6598 12.6606C37.8476 12.1893 37.9414 11.6551 37.9414 11.0581C37.9414 10.4611 37.8398 9.92702 37.6364 9.45566C37.4487 8.96863 37.1828 8.56017 36.8386 8.23026C36.4945 7.88462 36.0956 7.62543 35.6419 7.45265C35.1883 7.26412 34.6956 7.16983 34.1637 7.16983C33.6318 7.16983 33.1313 7.26412 32.662 7.45265C32.2083 7.62543 31.8095 7.88462 31.4653 8.23026C31.1368 8.56017 30.8787 8.96863 30.691 9.45566C30.5033 9.92702 30.4094 10.4611 30.4094 11.0581Z" fill="#FF4A36"/>
<path d="M41.4297 14.7107H42.8423C43.3916 14.0038 43.7605 13.1947 43.9488 12.2835C44.1372 11.3723 44.2313 10.3432 44.2313 9.19641V4.95459H54.0724V14.7107H55.791V20.013H53.2955V17.2087H43.9253V20.013H41.4297V14.7107ZM51.3885 14.7107V7.45258H46.774V10.5868C46.774 11.3409 46.672 12.095 46.4679 12.849C46.2639 13.5875 45.9814 14.208 45.6204 14.7107H51.3885Z" fill="#3981F1"/>
<path d="M56.3359 11.0581C56.3359 10.1312 56.4929 9.28287 56.8068 8.51309C57.1207 7.72757 57.568 7.05199 58.1487 6.48642C58.7294 5.92085 59.4201 5.48096 60.2205 5.16675C61.021 4.83684 61.9078 4.67188 62.8809 4.67188C63.8383 4.67188 64.7173 4.83684 65.5177 5.16675C66.3339 5.48096 67.0324 5.92085 67.6131 6.48642C68.1938 7.05199 68.6412 7.72757 68.955 8.51309C69.2847 9.28287 69.4494 10.1312 69.4494 11.0581C69.4494 11.9851 69.2847 12.8413 68.955 13.6268C68.6412 14.3966 68.1938 15.0643 67.6131 15.6299C67.0324 16.1954 66.3339 16.6353 65.5177 16.9496C64.7173 17.2637 63.8383 17.4208 62.8809 17.4208C61.9235 17.4208 61.0445 17.2637 60.2441 16.9496C59.4436 16.6353 58.753 16.1954 58.1723 15.6299C57.5915 15.0643 57.1364 14.3966 56.8068 13.6268C56.4929 12.8413 56.3359 11.9851 56.3359 11.0581ZM59.114 11.0581C59.114 11.608 59.2003 12.1186 59.3729 12.5899C59.5613 13.0612 59.8203 13.4697 60.1499 13.8153C60.4795 14.161 60.8719 14.4359 61.3271 14.6401C61.7979 14.8286 62.3159 14.9229 62.8809 14.9229C63.4459 14.9229 63.956 14.8365 64.4112 14.6636C64.8821 14.4751 65.2823 14.2159 65.6119 13.886C65.9415 13.5404 66.2005 13.1319 66.3889 12.6606C66.5771 12.1893 66.6714 11.6551 66.6714 11.0581C66.6714 10.4611 66.5694 9.92702 66.3653 9.45566C66.1769 8.96863 65.9102 8.56017 65.5648 8.23026C65.2195 7.88462 64.8193 7.62543 64.3642 7.45265C63.9089 7.26412 63.4146 7.16983 62.8809 7.16983C62.3473 7.16983 61.845 7.26412 61.3741 7.45265C60.919 7.62543 60.5187 7.88462 60.1734 8.23026C59.8439 8.56017 59.5849 8.96863 59.3965 9.45566C59.2082 9.92702 59.114 10.4611 59.114 11.0581Z" fill="#3981F1"/>
<path d="M71.1094 4.95459H73.7932V9.92695L79.0904 4.95459H82.5982L76.6418 10.4925L82.8104 17.2087H79.3732L74.6882 12.1656L73.7932 13.0376V17.2087H71.1094V4.95459Z" fill="#3981F1"/>
<path d="M83.6562 4.95459H95.1927V7.45258H90.7662V17.2087H88.0827V7.45258H83.6562V4.95459Z" fill="#3981F1"/>
<path d="M95.7812 11.0581C95.7812 10.1312 95.9384 9.28287 96.2527 8.51309C96.5663 7.72757 97.0134 7.05199 97.5941 6.48642C98.1748 5.92085 98.8655 5.48096 99.6663 5.16675C100.466 4.83684 101.353 4.67188 102.326 4.67188C103.284 4.67188 104.163 4.83684 104.963 5.16675C105.78 5.48096 106.478 5.92085 107.058 6.48642C107.639 7.05199 108.087 7.72757 108.401 8.51309C108.731 9.28287 108.895 10.1312 108.895 11.0581C108.895 11.9851 108.731 12.8413 108.401 13.6268C108.087 14.3966 107.639 15.0643 107.058 15.6299C106.478 16.1954 105.78 16.6353 104.963 16.9496C104.163 17.2637 103.284 17.4208 102.326 17.4208C101.369 17.4208 100.49 17.2637 99.6898 16.9496C98.8891 16.6353 98.1984 16.1954 97.6177 15.6299C97.037 15.0643 96.582 14.3966 96.2527 13.6268C95.9384 12.8413 95.7812 11.9851 95.7812 11.0581ZM98.5598 11.0581C98.5598 11.608 98.6462 12.1186 98.8184 12.5899C99.007 13.0612 99.2655 13.4697 99.5955 13.8153C99.9248 14.161 100.318 14.4359 100.773 14.6401C101.243 14.8286 101.761 14.9229 102.326 14.9229C102.891 14.9229 103.402 14.8365 103.857 14.6636C104.328 14.4751 104.728 14.2159 105.058 13.886C105.387 13.5404 105.646 13.1319 105.834 12.6606C106.023 12.1893 106.117 11.6551 106.117 11.0581C106.117 10.4611 106.015 9.92702 105.811 9.45566C105.623 8.96863 105.356 8.56017 105.011 8.23026C104.665 7.88462 104.265 7.62543 103.81 7.45265C103.355 7.26412 102.86 7.16983 102.326 7.16983C101.793 7.16983 101.291 7.26412 100.82 7.45265C100.365 7.62543 99.9641 7.88462 99.6191 8.23026C99.2891 8.56017 99.0305 8.96863 98.842 9.45566C98.6541 9.92702 98.5598 10.4611 98.5598 11.0581Z" fill="#3981F1"/>
<path d="M110.531 4.95466H113.215V6.2979C113.764 5.77945 114.353 5.37884 114.981 5.09605C115.608 4.81327 116.315 4.67188 117.1 4.67188C117.978 4.67188 118.787 4.83684 119.525 5.16675C120.278 5.48096 120.921 5.9287 121.455 6.50999C121.988 7.07556 122.405 7.75114 122.703 8.53659C123.001 9.30645 123.15 10.147 123.15 11.0581C123.15 12.0008 122.986 12.8648 122.656 13.6504C122.342 14.4201 121.911 15.0879 121.361 15.6534C120.811 16.2033 120.152 16.6353 119.383 16.9496C118.63 17.2637 117.821 17.4208 116.958 17.4208C116.189 17.4208 115.498 17.303 114.886 17.0674C114.274 16.8317 113.717 16.5018 113.215 16.0776V21.9219H110.531V4.95466ZM116.558 14.9229C117.092 14.9229 117.586 14.8365 118.041 14.6636C118.512 14.4909 118.921 14.2395 119.266 13.9096C119.611 13.564 119.878 13.1555 120.066 12.6841C120.27 12.1971 120.372 11.6473 120.372 11.0346C120.372 10.469 120.286 9.95059 120.113 9.47923C119.941 8.99221 119.689 8.58374 119.36 8.25384C119.046 7.90819 118.669 7.6411 118.23 7.45265C117.79 7.26412 117.303 7.16983 116.77 7.16983C115.954 7.16983 115.232 7.36618 114.604 7.75898C113.992 8.1517 113.529 8.62306 113.215 9.1729V12.8962C113.529 13.5561 113.976 14.0588 114.557 14.4045C115.138 14.7501 115.805 14.9229 116.558 14.9229Z" fill="#3981F1"/>
<path d="M124.484 11.0581C124.484 10.1312 124.642 9.28287 124.955 8.51309C125.269 7.72757 125.717 7.05199 126.297 6.48642C126.878 5.92085 127.569 5.48096 128.369 5.16675C129.169 4.83684 130.057 4.67188 131.029 4.67188C131.987 4.67188 132.866 4.83684 133.667 5.16675C134.482 5.48096 135.181 5.92085 135.762 6.48642C136.342 7.05199 136.789 7.72757 137.104 8.51309C137.433 9.28287 137.598 10.1312 137.598 11.0581C137.598 11.9851 137.433 12.8413 137.104 13.6268C136.789 14.3966 136.342 15.0643 135.762 15.6299C135.181 16.1954 134.482 16.6353 133.667 16.9496C132.866 17.2637 131.987 17.4208 131.029 17.4208C130.072 17.4208 129.193 17.2637 128.392 16.9496C127.592 16.6353 126.902 16.1954 126.321 15.6299C125.74 15.0643 125.285 14.3966 124.955 13.6268C124.642 12.8413 124.484 11.9851 124.484 11.0581ZM127.262 11.0581C127.262 11.608 127.349 12.1186 127.522 12.5899C127.71 13.0612 127.969 13.4697 128.299 13.8153C128.628 14.161 129.02 14.4359 129.476 14.6401C129.947 14.8286 130.464 14.9229 131.029 14.9229C131.594 14.9229 132.104 14.8365 132.559 14.6636C133.031 14.4751 133.431 14.2159 133.76 13.886C134.09 13.5404 134.349 13.1319 134.537 12.6606C134.726 12.1893 134.82 11.6551 134.82 11.0581C134.82 10.4611 134.718 9.92702 134.514 9.45566C134.325 8.96863 134.059 8.56017 133.713 8.23026C133.368 7.88462 132.968 7.62543 132.512 7.45265C132.057 7.26412 131.563 7.16983 131.029 7.16983C130.496 7.16983 129.994 7.26412 129.523 7.45265C129.067 7.62543 128.667 7.88462 128.322 8.23026C127.992 8.56017 127.734 8.96863 127.545 9.45566C127.357 9.92702 127.262 10.4611 127.262 11.0581Z" fill="#3981F1"/>
<path d="M139.266 4.95459H144.492C146.203 4.95459 147.49 5.1981 148.353 5.68513C149.216 6.17215 149.648 7.01265 149.648 8.20662C149.648 8.7722 149.523 9.25139 149.271 9.64412C149.021 10.0369 148.691 10.3904 148.283 10.7046C148.863 10.9246 149.295 11.2937 149.578 11.8122C149.86 12.3149 150.001 12.8962 150.001 13.5561C150.001 14.7815 149.57 15.7005 148.706 16.3132C147.843 16.9102 146.627 17.2087 145.057 17.2087H139.266V4.95459ZM141.95 12.1421V14.7815H144.798C145.598 14.7815 146.203 14.6793 146.611 14.4751C147.019 14.2709 147.223 13.9409 147.223 13.4853C147.223 12.9983 147.027 12.6527 146.635 12.4485C146.258 12.2442 145.669 12.1421 144.869 12.1421H141.95ZM141.95 7.38185V9.80907H145.104C145.653 9.80907 146.086 9.70701 146.399 9.50274C146.713 9.29854 146.87 8.9843 146.87 8.5601C146.87 8.0574 146.658 7.73533 146.234 7.59396C145.826 7.45258 145.222 7.38185 144.421 7.38185H141.95Z" fill="#3981F1"/>
</g>
<defs>
<clipPath id="clip0_411_4180">
<rect width="150" height="23" fill="white"/>
</clipPath>
</defs>
</svg>
