<svg width="20" height="20" viewBox="0 0 20 20" fill="none" xmlns="http://www.w3.org/2000/svg">
<path d="M5.03268 0.0951805C4.68845 0.273829 4.66231 0.33919 4.64924 1.15836L4.63617 1.87296H3.65577C2.55338 1.87296 2.25708 1.91653 1.74292 2.15618C0.932462 2.53091 0.32244 3.25858 0.0784314 4.13875C0.0043573 4.40455 0 4.79671 0 10.5222V16.6224L0.11329 16.9579C0.291939 17.4808 0.522876 17.8512 0.888889 18.2128C1.26797 18.5832 1.55556 18.7662 2.02614 18.9405L2.35294 19.0625H10H17.6471L17.9651 18.9449C18.4314 18.7749 18.732 18.5832 19.1111 18.2128C19.4771 17.8512 19.7081 17.4808 19.8867 16.9579L20 16.6224V10.5222C20 4.76185 19.9956 4.40455 19.9216 4.13875C19.6732 3.24986 19.0719 2.53091 18.2571 2.15618C17.7429 1.91653 17.4466 1.87296 16.3442 1.87296H15.3638L15.3508 1.15836C15.3377 0.517838 15.329 0.426334 15.2462 0.317402C15.1373 0.164898 14.8192 -0.000680923 14.6405 -0.000680923C14.4052 -0.000680923 14.1307 0.173611 14.0218 0.391476C13.9303 0.565769 13.9216 0.648558 13.9216 1.22808V1.87296H10H6.07843V1.22808C6.07843 0.635485 6.06972 0.561411 5.97821 0.391476C5.86492 0.173611 5.58606 -0.000680923 5.36383 -0.000680923C5.2854 -0.000680923 5.13725 0.0428925 5.03268 0.0951805ZM4.64924 3.78581C4.66667 4.33919 4.7146 4.44376 5.03268 4.60498C5.27669 4.73135 5.45098 4.73135 5.68627 4.60498C5.98257 4.44812 6.07843 4.2259 6.07843 3.71609V3.31087H10H13.9216V3.71609C13.9216 4.2259 14.0174 4.44812 14.3137 4.60498C14.549 4.73135 14.7233 4.73135 14.9673 4.60498C15.2854 4.44376 15.3333 4.33919 15.3508 3.78581L15.3682 3.30651L16.3747 3.31958C17.3813 3.33265 17.3856 3.33265 17.634 3.45466C17.9782 3.62459 18.2571 3.90782 18.4227 4.26076L18.5621 4.5527L18.5752 5.99932L18.5882 7.4503H10H1.41176L1.42484 5.99932C1.43791 4.59627 1.44227 4.54398 1.53813 4.33483C1.76035 3.85553 2.06536 3.55923 2.51416 3.39801C2.7146 3.32394 2.87582 3.31522 3.69063 3.31087H4.63181L4.64924 3.78581ZM18.5839 12.5396C18.5839 16.5571 18.5882 16.4917 18.3181 16.9144C18.0566 17.3196 17.6558 17.5723 17.159 17.6464C16.7582 17.703 3.24183 17.703 2.84096 17.6464C2.34423 17.5723 1.94336 17.3196 1.68192 16.9144C1.41176 16.4917 1.41612 16.5571 1.41612 12.5396V8.88821H10H18.5839V12.5396Z" fill="#2B3746" fill-opacity="0.5"/>
</svg>
