<svg width="260" height="240" viewBox="0 0 260 240" fill="none" xmlns="http://www.w3.org/2000/svg">
<path d="M259.945 2.99989C260.957 3.03615 262.395 3.02003 263.529 3.19073C268.393 4.03787 270.26 4.7494 274.306 6.77985C281.008 9.29524 294.563 24.9898 295.28 25.0523C295.28 25.0523 295.28 25.0523 295.28 25.0523C295.287 25.0468 295.293 25.0396 295.298 25.0306C295.385 24.8562 294.341 23.216 294.316 22.8804C294.29 22.5471 295.404 21.8895 293.741 19.7887C292.533 18.2762 290.381 15.9487 288.383 14.0721C286.149 11.933 283.868 10.1222 283.119 9.51548C282.065 8.6487 280.828 7.56849 279.486 6.63438C274.353 3.24033 272.136 2.27886 266.861 0.49475C264.742 0.147271 262.822 0.0285117 260.651 0.0990828C257.901 -0.157274 253.848 0.654677 252.306 1.07818C251.013 1.39288 250.222 1.49559 248.889 1.96297C247.372 2.50028 245.225 3.55893 242.79 4.94901C238.755 7.34644 237.953 7.69603 235.779 9.36682C233.503 11.1568 230.341 14.4787 227.89 17.1249C227.557 17.4474 227.225 17.7745 226.894 18.1063C227.047 17.7972 227.202 17.4893 227.358 17.183C226.102 18.5743 225.715 19.3166 224.621 20.6977C223.414 22.2389 222.694 22.9427 221.906 24.0262C221.262 24.9138 220.506 26.2149 219.689 27.4161C218.502 29.1736 218.597 28.6999 217.949 29.6353C217.673 29.9289 213.367 36.9439 213.165 37.4179C211.395 40.6188 211.555 40.9001 210.285 43.4261C206.779 50.4775 203.466 57.7265 200.838 64.4802C199.671 67.4737 198.557 70.6608 197.577 73.7343C199.802 69.1417 196.777 79.9222 197.101 75.6296C196.139 79.0718 195.135 81.416 194.242 84.6806C193.672 86.7922 193.393 88.3111 192.598 91.3353C191.186 96.6678 189.487 102.573 189.89 104.28C188.442 110.531 187.797 116.304 186.823 118.468C186.534 120.066 186.34 124.463 186.192 126.357C185.918 128.079 185.151 141.861 185.312 143.982C185.29 146.349 185.418 150.267 185.492 152.052C185.588 154.373 185.04 156.438 186.478 160.309C187.425 165.447 187.684 166.71 189.884 171.295C190.287 172.045 190.44 172.061 190.679 172.477C191.125 173.249 192.107 174.939 193.481 176.236C195.682 178.33 197.764 178.561 197.237 178.812C199.277 179.656 201.299 179.835 203.4 179.605C204.132 179.427 204.87 179.193 205.618 178.905C206.616 178.701 207.53 178.449 208.538 178.095C207.871 178.083 209.231 177.468 210.576 176.788C211.942 176.106 213.172 175.492 212.146 176.311C215 174.488 218.314 171.703 220.86 169.206C220.03 169.24 226.547 163.562 226.32 164.189C226.633 163.858 226.948 163.521 227.265 163.178C229.813 160.166 231.737 158.148 234.687 154.33C237.581 150.527 237.336 150.683 237.856 149.551C238.465 148.782 239.08 147.995 239.7 147.19C243.463 143.349 241.904 143.464 247.675 135.961C247.835 135.749 247.994 135.531 248.151 135.306C248.87 133.654 249.981 131.393 250.105 128.23C250.217 125.102 249.174 122.166 247.759 119.743C247.439 119.204 247.546 119.187 247.133 118.538C246.276 116.96 242.407 113.238 242.837 113.299C241.595 112.258 240.242 111.235 238.783 110.229C237.623 109.271 236.58 108.463 235.512 107.673C235.571 107.598 235.63 107.522 235.689 107.447C233.352 106.222 229.281 103.688 227.559 102.866C227.185 102.681 227.051 102.753 225.874 102.172C224.512 101.497 221.86 100.129 220.114 99.3605C219.555 98.9358 218.987 98.5116 218.41 98.088C215.493 96.6816 214.239 96.5803 212.407 95.846C212.013 95.6632 206.201 93.3325 205.879 93.2235C203.305 92.2058 204.109 92.0639 196.413 89.5009C195.062 89.0603 193.926 88.8067 192.684 88.4109C190.506 87.694 183.822 85.4151 183.417 85.0657C180.722 84.5712 173.388 82.4626 171.282 82.0344C170.636 81.8982 170.449 82.043 168.467 81.5922C166.864 81.2238 162.741 80.0838 160.663 79.6432C158.449 79.17 157.676 79.167 156.695 78.9639C155.775 78.7747 154.955 78.4662 153.698 78.2024C149.778 77.3825 146.132 76.8841 143.028 76.3135C138.523 75.4862 134.589 74.4371 130.82 73.675C129.871 73.5515 128.929 73.49 127.938 73.3422C115.758 71.5127 101.725 70.0883 89.4408 69.5787C83.531 69.2137 69.3388 69.7624 73.1215 68.9019C71.0687 68.6447 56.4312 69.6585 53.7819 70.0946C51.2189 70.3626 48.6917 70.5354 46.5779 70.8606C40.2392 71.9155 35.5563 72.8271 27.7645 75.6923C25.7644 76.4621 23.8711 77.1906 22.6013 77.9016C21.2034 78.6838 19.879 79.7175 18.3766 80.8951C16.5223 82.3285 13.8988 84.8268 12.281 87.8902C10.5621 91.012 10.055 94.4791 10.0978 96.8061C10.1148 97.6745 10.2698 97.9713 10.4472 99.2326C11.0209 103.536 13.3885 108.653 12.525 107.941C14.8302 112.682 17.9652 117.831 21.028 121.77C27.4921 130.363 39.9536 141.834 48.666 149.095C49.4527 149.762 50.1747 150.382 50.8259 150.95C55.5038 155.077 55.3496 155.182 61.8441 160.74C63.3042 162.004 64.9585 163.447 66.752 165.07C71.0359 168.956 74.5839 171.943 77.4192 175.676C81.8397 180.199 84.825 183.839 88.1369 187.344C88.3937 187.835 88.6444 188.323 88.8888 188.808C89.3427 189.402 89.7859 189.992 90.2184 190.578C90.4319 190.702 90.6448 190.826 90.8569 190.95C94.2717 195.506 97.3888 201.246 99.5107 205.596C101.132 208.867 103.98 215.126 104.795 221.932C105.741 228.617 103.919 235 102.231 238.143C100.458 241.466 100.067 241.404 99.0509 243.384C98.482 244.015 97.858 244.652 97.257 245.217C96.8207 245.525 96.3765 245.823 95.9247 246.112C92.3167 249.482 87.3811 252.535 82.9858 254.427C75.1068 258.057 62.1931 260.414 53.4978 261.139C51.322 261.357 48.5949 261.685 46.4431 261.725C43.3021 261.768 42.5584 261.462 38.601 261.32C31.7946 261.188 19.1311 259.722 12.9851 257.639C11.1767 257.079 10.3072 256.646 9.10223 256.191C4.03325 254.201 -0.1297 252.134 -3.55199 248.456C-5.42606 246.711 -6.12574 245.567 -6.60464 245.027C-7.07209 244.449 -7.38517 244.208 -7.8102 243.442C-8.66451 242.322 -9.08633 238.091 -8.96444 237.284C-9.03008 236.773 -9.6833 238.434 -9.72908 237.744C-11.1814 245.543 -7.66437 248.875 -3.24456 252.362C5.30264 258.853 16.0932 261.35 26.3225 262.919C27.2723 262.941 28.2283 262.952 29.1895 262.952C29.1895 262.952 29.1896 262.952 29.1896 262.951C33.2576 263.279 34.8488 263.643 37.0363 263.835C56.0664 266.585 105.506 258.576 107.474 229.66C109.095 224.46 104.769 208.511 102.691 205.823C102.282 205.067 102.023 204.926 101.601 204.095C97.8442 196.44 93.1978 189.772 87.9859 183.241C76.926 170.272 64.2844 158.343 50.8261 147.132C50.7193 147.043 50.6124 146.954 50.5053 146.866C34.1221 132.316 12.0648 115.418 13.2796 93.5113C15.5375 82.7639 27.8297 77.9739 38.2826 75.3924C49.0948 72.8025 60.7851 71.9838 71.7937 71.8214C80.5944 71.6776 91.6091 72.2908 100.199 72.9276C103.848 73.1987 105.246 73.0417 109.918 73.7391C109.975 73.6703 110.032 73.6014 110.089 73.5326C114.164 74.0663 116.785 74.5504 121.311 75.1732C125.141 75.6716 135.29 77.2736 138.653 77.8676C140.402 78.1629 139.776 77.9095 141.404 78.205C144.178 78.7038 150.127 80.0552 153.933 80.8732C157.364 81.5902 163.277 82.7795 165.908 83.4514C175.328 85.8148 185.684 88.9423 195.535 92.1953C198.125 93.0398 201.908 94.2071 202.707 94.512C204.362 95.1336 204.783 95.4829 205.864 95.9202C211.391 98.1208 220.036 101.661 225.28 104.498C231.367 107.739 237.815 111.741 242.576 116.713C247.488 121.479 250.159 129.07 245.793 134.677C242.645 139.29 239.666 143.442 236.87 147.152C229.522 157.018 216.213 172.595 206.157 176.148C205.671 176.331 205.353 176.446 205.116 176.539C204.827 176.648 204.615 176.731 204.43 176.803C204.058 176.943 203.717 177.089 202.777 177.211C200.734 177.429 199.783 177.064 198.859 176.818C191.376 175.775 188.149 158.547 187.952 151.946C187.848 150.72 187.658 149.806 187.631 149.039C187.617 148.651 187.689 147.77 187.683 146.515C187.718 135.654 188.509 127.586 190.072 117.034C193.188 96.6955 199.848 73.6105 208.489 53.8717C210.34 49.6306 211.569 46.5119 211.851 45.9444C212.504 44.6524 213.092 43.9034 214.486 41.3829C219.184 32.7395 226.332 21.6815 232.937 15.37C236.262 12.0342 241.171 8.45497 245.101 6.47412C248.013 4.60975 255.968 2.46744 257.501 2.75631C258.424 2.76295 258.852 2.96039 259.945 2.99989ZM191.942 94.5994C192.418 94.0478 190.57 100.601 190.978 98.0641C191.064 97.4926 191.811 94.7414 191.942 94.5994ZM111.446 71.8052C111.519 71.7137 111.592 71.6222 111.665 71.5307C112.551 71.6703 113.438 71.813 114.326 71.9587C113.818 71.9589 113.309 71.96 112.802 71.9622C112.349 71.9091 111.897 71.8567 111.446 71.8052Z" fill="#FF9E84"/>
</svg>
