<svg width="254" height="284" viewBox="0 0 254 284" fill="none" xmlns="http://www.w3.org/2000/svg">
<path d="M32.9865 6.26771C32.1573 5.84698 30.9863 5.1822 29.9292 4.82738C25.4142 3.47642 23.6524 3.44221 19.365 3.92865C12.3095 3.95253 -3.65458 15.3063 -4.4188 15.2074C-4.41882 15.2073 -4.41884 15.2073 -4.41885 15.2073C-4.42436 15.2004 -4.42826 15.1921 -4.43054 15.1823C-4.47555 14.9935 -3.1293 13.7032 -3.03307 13.3919C-2.93763 13.083 -3.84928 12.166 -1.82148 10.6079C-0.305613 9.46244 2.0159 7.95177 4.57516 6.56616C7.2952 5.07662 9.68259 4.11284 10.529 3.75362C11.1089 3.50464 11.7412 3.21991 12.4074 2.94171C13.1974 2.61791 14.0342 2.3047 14.879 2.04791C20.1448 0.560405 23.2657 0.400374 28.209 0.958686C30.2168 1.53354 32.0822 2.36234 33.8076 3.40597C36.1691 4.40906 39.2583 7.13987 40.3017 8.20449C41.2047 9.0657 41.8114 9.51767 42.7014 10.5353C43.7122 11.6952 45.0322 13.6269 46.4449 15.8568C48.7921 19.6743 49.3741 20.316 50.529 22.6444C51.731 25.1227 53.1379 29.2815 54.2765 32.5263C54.4457 32.9356 54.6132 33.3481 54.7789 33.7641C54.7657 33.4339 54.7512 33.1045 54.7356 32.7759C55.3051 34.4709 55.3585 35.2699 55.8063 36.8928C56.2963 38.6993 56.6819 39.5794 56.9848 40.8232C57.231 41.8405 57.4262 43.265 57.7247 44.6204C58.155 46.6001 58.2471 46.1418 58.4959 47.2023C58.6251 47.563 60.0583 55.2967 60.0914 55.7851C60.5977 59.2394 60.354 59.4448 60.6582 62.1307C61.4807 69.6138 62.1948 77.2044 62.5079 84.1256C62.6485 87.1954 62.6942 90.4257 62.6661 93.511C61.9862 88.6729 61.4997 99.3742 62.5283 95.3748C62.3742 98.7897 62.6144 101.219 62.4797 104.456C62.3879 106.55 62.1978 108.009 62.0645 110.998C61.8357 116.274 61.7885 122.147 60.9235 123.599C60.5477 129.737 59.626 135.199 59.9934 137.454C59.845 139.008 58.8922 143.097 58.5599 144.882C58.3457 146.53 55.7977 159.509 55.2564 161.413C54.7639 163.612 53.8473 167.266 53.4417 168.951C52.9663 170.95 53.0943 173.075 51.116 176.543C49.6745 180.912 48.9969 182.64 47.0145 186.534C46.6189 187.282 46.471 187.305 46.2463 187.728C45.7584 188.632 45.1401 189.928 44.1119 191.429C42.3215 194 41.0177 194.665 41.498 194.769C39.9871 196.266 38.4282 197.425 36.1279 197.847C35.3411 197.883 34.562 197.792 33.8106 197.581C32.6925 197.451 31.7208 197.132 30.6735 196.585C31.0349 196.642 30.8559 196.452 30.4381 196.124C30.2288 195.959 29.9585 195.752 29.6607 195.512C29.3475 195.259 29.1724 195.115 28.919 194.903C27.9688 194.111 27.0267 193.242 27.7072 194.226C24.9463 190.997 23.7163 188.464 21.9287 184.623C22.2622 184.602 21.5603 183.126 20.7247 181.426C19.8954 179.759 18.9616 177.928 18.9387 178.338C18.7831 177.935 18.6275 177.524 18.472 177.108C18.2862 176.539 18.0967 175.969 17.9034 175.39C16.9041 172.316 16.1639 169.466 16.1619 165.611C16.335 161.085 16.5885 161.54 17.026 160.237C17.1863 159.198 17.3925 158.204 17.6532 157.195C18.7314 151.707 19.1133 152.99 23.7557 144.785C25.6963 142.73 30.4415 137.016 34.0058 133.835C34.4238 133.448 34.3676 133.369 34.9316 132.85C36.3863 131.483 39.9867 128.896 39.724 128.729C41.0672 127.842 42.45 126.972 43.8703 126.117C44.9896 125.292 46.0029 124.565 47.0729 123.822C47.0161 123.745 46.9594 123.667 46.9027 123.59C49.2653 122.463 52.8517 120.23 54.7498 119.29C55.1075 119.112 55.2427 119.185 56.3569 118.627C57.656 117.974 60.0812 116.679 61.7041 115.932C62.2612 115.495 62.824 115.06 63.3926 114.626C66.3123 113.152 67.3715 113.113 69.0906 112.383C69.3741 112.24 75.0049 109.839 75.332 109.721C77.8777 108.657 76.9129 108.586 84.274 105.992C85.5897 105.539 86.6949 105.278 87.8955 104.876C89.9922 104.15 96.2335 101.936 96.6912 101.57C99.3675 101.056 106.242 99.0637 108.323 98.6558C108.95 98.5277 109.133 98.6727 111.051 98.2514C112.606 97.9044 116.567 96.8489 118.544 96.4659C120.644 96.0534 121.425 96.0649 122.366 95.8899C123.256 95.726 124.051 95.4412 125.263 95.2167C129.044 94.52 132.546 94.1642 135.548 93.7291C139.878 93.1023 143.723 92.2583 147.381 91.7232C148.295 91.6572 149.197 91.6546 150.149 91.5713C162.034 90.517 175.348 90.3735 187.331 91.6621C192.836 92.0202 206.224 95.3265 202.81 93.7601C204.921 93.8102 218.308 98.3316 220.576 99.745C222.919 100.822 225.051 101.787 226.843 102.86C232.173 106.193 235.962 109.091 240.75 115.437C241.96 117.093 243.184 118.92 243.717 120.013C244.366 121.329 244.839 122.847 245.45 124.672C247.072 128.83 247.966 137.328 247.482 141.527C247.422 142.321 247.249 142.587 247.084 143.734C246.46 148.099 245.334 152.524 246.01 151.88C244.334 157.606 243.068 161.833 240.983 166.827C237.308 175.99 228.582 190.3 222.397 198.996C221.849 199.787 221.347 200.524 220.894 201.198C217.605 206.153 217.8 206.194 213.069 213.031C212.084 214.466 210.898 216.205 209.62 218.149C206.56 222.812 203.892 226.531 202.23 230.488C199.053 235.877 197.127 239.816 194.742 243.72C194.595 244.252 194.452 244.782 194.313 245.31C193.99 245.989 193.674 246.665 193.363 247.336C193.177 247.505 192.992 247.673 192.807 247.841C190.597 252.505 188.385 258.944 186.92 263.06C184.059 269.984 179.481 288.399 179.327 295.558C179.048 299.181 179.29 299.539 178.858 301.64C178.894 302.472 178.944 303.292 179.006 304.1C179.12 304.603 179.24 305.1 179.363 305.59C179.639 310.487 180.473 316.025 181.802 320.269C183.939 328.283 190.925 338.8 197.254 344.095C198.766 345.477 200.727 347.208 202.424 348.325C204.876 349.905 205.708 350.063 209.004 351.709C214.648 354.781 226.538 357.983 232.648 357.535C234.42 357.491 235.329 357.29 236.519 357.144C241.558 356.448 246.071 355.04 248.679 351.501C250.167 349.682 250.309 348.59 250.598 347.916C250.831 347.206 251.026 346.937 251.141 346.127C251.452 344.799 250.524 340.906 250.27 340.143C250.206 339.653 251.247 341.01 251.117 340.358C254.655 346.528 253.457 351.785 248.743 355.256C239.726 361.522 228.677 360.462 218.916 358.198C218.035 357.857 217.211 357.509 216.363 357.133C216.363 357.133 216.363 357.132 216.363 357.132C212.677 355.834 211.127 355.438 209.156 354.637C199.889 351.001 187.141 341.201 181.342 326.844C175.248 312.691 176.052 296.737 177.895 286.003C178.373 281.441 182.399 266.399 183.808 263.552C184.122 262.802 184.36 262.646 184.665 261.828C187.341 254.199 190.348 247.181 193.93 239.831C201.549 225.343 210.133 211.331 219.834 197.613C219.903 197.515 219.973 197.416 220.043 197.318C232.522 179.345 244.378 159.544 244.722 137.969C245.639 115.488 223.978 100.977 203.451 96.8851C195.439 94.9543 184.825 93.9234 176.637 93.5925C173.262 93.4524 171.845 93.1377 167.289 93.385C167.241 93.3111 167.192 93.2372 167.143 93.1633C163.263 93.3157 160.79 93.5714 156.37 93.8559C152.647 94.0501 142.942 95.0344 139.679 95.4839C138.003 95.6931 138.608 95.4702 137.044 95.6896C134.372 96.0568 128.652 97.1718 124.997 97.8754C121.667 98.4873 116.057 99.5216 113.52 100.149C104.382 102.355 94.6525 105.376 85.1974 108.672C82.5789 109.575 79.2339 110.662 78.4458 110.979C76.9098 111.591 76.4606 111.963 75.4175 112.411C70.1029 114.656 61.8413 118.273 56.992 120.936C41.2508 129.574 23.7508 141.806 19.4747 159.353C18.5207 163.572 18.5069 168.965 20.5038 174.459C23.7018 183.373 28.0198 192.602 33.2095 194.86C34.0166 195.183 34.3583 195.252 34.6591 195.341C34.9592 195.411 35.23 195.509 36.0226 195.378C37.777 194.982 38.4542 194.189 39.2279 193.574C44.4819 189.543 49.3244 174.695 51.0515 168.359C51.3896 167.204 51.7572 166.374 51.9384 165.653C52.0302 165.287 52.1378 164.437 52.4069 163.256C54.6692 153.085 55.9517 145.427 57.2449 135.272C59.6796 115.698 60.2795 92.7436 58.7706 72.1371C58.4512 67.7095 58.3834 64.4973 58.315 63.8928C58.1521 62.5144 57.8589 61.6477 57.4459 58.9137C56.0896 49.576 53.6742 37.2019 50.4509 29.0557C48.8574 24.8041 46.1337 19.6342 43.7198 16.1632C42.0591 13.2612 36.5264 7.65657 35.0948 7.17033C34.3313 6.74744 33.8837 6.72259 32.9865 6.26771ZM61.7342 114.167C61.4348 113.526 61.309 120.049 61.652 117.613C61.7334 117.06 61.8174 114.335 61.7342 114.167ZM166.009 91.3172C165.948 91.2194 165.887 91.1216 165.826 91.0238C164.981 91.0815 164.133 91.1444 163.283 91.2123C163.763 91.2567 164.242 91.3027 164.72 91.3504C165.15 91.338 165.58 91.327 166.009 91.3172Z" fill="#FF9E84"/>
</svg>
