<svg width="14" height="24" viewBox="0 0 14 24" fill="none" xmlns="http://www.w3.org/2000/svg">
<path d="M7.00081 12.1389C10.1378 12.1389 12.6803 9.58956 12.6803 6.4442C12.6802 3.29883 10.1378 0.75 7.00081 0.75C3.86272 0.75 1.31919 3.29883 1.31919 6.4442C1.31915 9.58956 3.86272 12.1389 7.00081 12.1389ZM7.00081 3.64267C8.54382 3.64267 9.79474 4.89677 9.79474 6.44415C9.79474 7.99159 8.54382 9.24564 7.00081 9.24564C5.45619 9.24564 4.20575 7.99159 4.20575 6.44415C4.20575 4.89677 5.45614 3.64267 7.00081 3.64267ZM13.5476 12.8338C13.2276 12.1878 12.3394 11.6506 11.1585 12.5828C9.5624 13.8429 7.00077 13.8429 7.00077 13.8429C7.00077 13.8429 4.43748 13.8429 2.84133 12.5828C1.66103 11.6506 0.773379 12.1878 0.452841 12.8338C-0.107157 13.9594 0.524608 14.5037 1.95038 15.4211C3.16793 16.205 4.84133 16.4978 5.92136 16.6071L5.01943 17.5113C3.74932 18.784 2.52356 20.0139 1.67258 20.867C1.16353 21.3768 1.16353 22.2036 1.67258 22.7133L1.82543 22.8677C2.33448 23.3774 3.15862 23.3774 3.66762 22.8677L7.01447 19.5119C8.28569 20.7852 9.51145 22.0146 10.3624 22.8677C10.8714 23.3774 11.6956 23.3774 12.2046 22.8677L12.3574 22.7133C12.8665 22.203 12.8665 21.3768 12.3574 20.8665L9.01057 17.5113L8.10649 16.6044C9.18757 16.4923 10.8424 16.1984 12.05 15.4212C13.4758 14.5037 14.1065 13.9593 13.5476 12.8338Z" fill="#6398FD"/>
</svg>
