<svg width="12" height="8" viewBox="0 0 12 8" fill="none" xmlns="http://www.w3.org/2000/svg">
<path d="M10.3613 0.216676C10.2739 0.272627 8.89959 1.61195 7.3015 3.18905L4.39906 6.05652L3.01778 4.67874C1.57355 3.24151 1.55607 3.22752 1.26932 3.22752C0.877667 3.22752 0.5 3.60519 0.5 3.99684C0.5 4.29058 0.493007 4.28359 2.27643 6.06701C3.21361 7.00768 4.02839 7.79799 4.08783 7.82596C4.15078 7.85394 4.29066 7.87842 4.40605 7.87842C4.84317 7.87842 4.5844 8.10572 8.0988 4.59831C9.94167 2.75544 11.3509 1.3252 11.4034 1.23428C11.5992 0.905569 11.4873 0.447473 11.1586 0.227167C11.0432 0.153732 10.9663 0.132751 10.7669 0.12226C10.5396 0.111769 10.5047 0.118763 10.3613 0.216676Z" fill="#6398FD"/>
</svg>
