<svg width="17" height="18" viewBox="0 0 17 18" fill="none" xmlns="http://www.w3.org/2000/svg">
<path d="M2.40336 0.551769C2.22406 0.614855 2.02484 0.78751 1.30101 1.5047C0.500817 2.29825 0.294958 2.61036 0.1057 3.32091C-0.00719056 3.74591 -0.0337531 4.61583 0.0459344 5.16368C0.374645 7.37169 2.00492 10.1674 4.39886 12.6145C7.10492 15.3836 10.0467 17.15 12.4672 17.4688C12.9453 17.5318 13.792 17.492 14.1772 17.3891C14.8911 17.1998 15.1998 16.9973 15.9934 16.1971C16.9496 15.2309 16.9995 15.1578 16.9995 14.6764C16.9995 14.2215 17.0094 14.2348 15.2995 12.5315C13.5995 10.8381 13.6891 10.9078 13.1811 10.9078C12.7661 10.9111 12.6764 10.9643 12.0157 11.6084C11.4412 12.1695 11.2918 12.2758 10.9332 12.3688C10.3721 12.5149 9.92386 12.3621 8.88129 11.6715C8.23383 11.2399 7.76566 10.858 7.20453 10.2936C6.64008 9.73243 6.25824 9.26427 5.8266 8.61681C5.13597 7.57423 4.98324 7.12599 5.12933 6.56485C5.2223 6.20294 5.32855 6.05353 5.88968 5.47911C6.51058 4.84825 6.57699 4.73868 6.60023 4.35353C6.61019 4.15099 6.60023 4.06134 6.54047 3.90196C6.47074 3.71271 6.38773 3.62306 4.96664 2.19864C3.25004 0.475401 3.2766 0.495323 2.80843 0.501965C2.65902 0.501965 2.47972 0.525206 2.40336 0.551769Z" fill="#6398FD"/>
</svg>
