<svg width="17" height="18" viewBox="0 0 17 18" fill="none" xmlns="http://www.w3.org/2000/svg">
<g clip-path="url(#clip0_244_1041)">
<path d="M8.1293 0.565039C7.16309 0.950195 6.22676 2.83945 5.76855 5.32305L5.71875 5.58203H8.50117H11.2836L11.2338 5.32305C10.8686 3.34082 10.2045 1.74043 9.43086 0.963477C9.10547 0.638086 8.87969 0.521875 8.53438 0.508594C8.35176 0.505273 8.24219 0.518555 8.1293 0.565039Z" fill="#6398FD"/>
<path d="M5.59473 0.995249C5.0668 1.19115 4.70156 1.36048 4.2666 1.61283C3.05469 2.31009 2.02539 3.29955 1.28828 4.47494C1.04922 4.85345 0.730469 5.45775 0.730469 5.5308C0.730469 5.57396 0.95293 5.5806 2.62969 5.57396L4.52559 5.564L4.60527 5.13236C4.77461 4.20599 5.09668 3.05716 5.40879 2.28685C5.53828 1.96146 5.83711 1.3638 6.00977 1.08158C6.08281 0.962046 6.14258 0.855796 6.14258 0.849156C6.14258 0.805992 5.99316 0.849156 5.59473 0.995249Z" fill="#6398FD"/>
<path d="M10.8555 0.849156C10.8555 0.855797 10.9152 0.962047 10.9883 1.08158C11.1609 1.3638 11.4598 1.96146 11.5893 2.28685C11.9014 3.05716 12.2234 4.20599 12.3928 5.13236L12.4725 5.564L14.3684 5.57396C16.0518 5.5806 16.2676 5.57396 16.2676 5.5308C16.2676 5.44447 15.8791 4.72396 15.6201 4.33216C14.6041 2.79486 13.09 1.59955 11.3801 0.985289C10.985 0.842515 10.8555 0.809312 10.8555 0.849156Z" fill="#6398FD"/>
<path d="M0.204883 7.06426C0.0322266 7.84121 0.015625 8.00723 0.015625 9C0.015625 9.99277 0.0322266 10.1588 0.204883 10.9324L0.274609 11.2578H2.32988H4.38516L4.36855 11.115C4.25234 10.2584 4.25234 7.60547 4.36855 6.86504L4.38848 6.74219H2.3332H0.274609L0.204883 7.06426Z" fill="#6398FD"/>
<path d="M5.52832 7.04766C5.47187 7.82793 5.44531 8.46543 5.44531 9C5.44531 9.53457 5.47187 10.1721 5.52832 10.949L5.55156 11.2578H8.49668H11.4418L11.465 10.949C11.5746 9.425 11.5746 8.575 11.465 7.04766L11.4418 6.74219H8.49668H5.55156L5.52832 7.04766Z" fill="#6398FD"/>
<path d="M12.6293 6.86504C12.7455 7.60547 12.7455 10.2584 12.6293 11.115L12.6127 11.2578H14.668H16.7232L16.793 10.9324C16.9623 10.1654 16.9789 9.99277 16.9789 9C16.9822 8.00723 16.9656 7.84453 16.793 7.06426L16.7232 6.74219H14.6646H12.6094L12.6293 6.86504Z" fill="#6398FD"/>
<path d="M0.730469 12.4665C0.730469 12.5362 1.0625 13.1671 1.28828 13.5257C1.60371 14.0304 1.93242 14.4487 2.3541 14.887C3.32031 15.8864 4.4459 16.6103 5.73418 17.0552C5.93672 17.1249 6.1127 17.1747 6.12598 17.1647C6.13594 17.1515 6.08613 17.0419 6.01309 16.9224C5.83711 16.6368 5.53828 16.0392 5.40879 15.7138C5.09668 14.9435 4.77461 13.7946 4.60527 12.8683L4.52559 12.4366L2.62969 12.4267C1.03926 12.42 0.730469 12.4267 0.730469 12.4665Z" fill="#6398FD"/>
<path d="M5.76465 12.6766C6.05352 14.2371 6.55156 15.6316 7.1293 16.5049C7.37832 16.8801 7.76016 17.2619 8.01582 17.3881C8.18848 17.4711 8.25156 17.4844 8.49727 17.4844C8.87578 17.4844 9.08164 17.3848 9.42695 17.0395C10.2006 16.2625 10.8646 14.6621 11.2299 12.6766L11.2797 12.4209H8.49727H5.71484L5.76465 12.6766Z" fill="#6398FD"/>
<path d="M12.4691 12.4607C12.4625 12.484 12.4227 12.6832 12.3861 12.9023C12.2268 13.7822 11.898 14.9477 11.5893 15.7146C11.4598 16.04 11.1609 16.6377 10.9883 16.9199C10.9152 17.0395 10.8555 17.1457 10.8555 17.1523C10.8555 17.1922 10.985 17.159 11.3801 17.0162C13.2527 16.3422 14.8564 15.0008 15.8791 13.2477C16.085 12.8957 16.2676 12.5271 16.2676 12.4607C16.2676 12.401 12.4857 12.401 12.4691 12.4607Z" fill="#6398FD"/>
</g>
<defs>
<clipPath id="clip0_244_1041">
<rect width="17" height="17" fill="white" transform="translate(0 0.5)"/>
</clipPath>
</defs>
</svg>
