<svg width="22" height="14" viewBox="0 0 22 14" fill="none" xmlns="http://www.w3.org/2000/svg">
<path d="M21.0248 0.962475C20.7885 1.7946 20.47 2.5189 20.0709 3.17656L20.0875 3.14716C19.6954 3.87898 19.2272 4.72449 18.6829 5.6837C18.2162 6.44101 17.9691 6.83305 17.9417 6.85984C17.8209 7.0294 17.7369 7.23719 17.708 7.46556L17.7071 7.47242C17.7307 7.6802 17.8165 7.86152 17.9417 7.99678L18.2917 8.43391C20.1645 10.5895 21.2179 12.0754 21.4519 12.8915C21.4825 12.9817 21.5 13.0855 21.5 13.1943C21.5 13.3845 21.4457 13.5599 21.3539 13.704L21.3556 13.7011C21.2016 13.8785 20.9863 13.9882 20.7482 13.9882C20.722 13.9882 20.6949 13.9873 20.6695 13.9843H20.673H18.3705C18.3696 13.9843 18.3679 13.9843 18.3661 13.9843C18.0712 13.9843 17.7999 13.8687 17.5872 13.6766L17.5898 13.6785C17.28 13.3933 17.0044 13.0846 16.7576 12.7494L16.7497 12.7376C16.3466 12.2273 15.9889 11.7977 15.6768 11.4488C14.6371 10.3419 13.8699 9.78843 13.3751 9.78843C13.3568 9.78647 13.3358 9.78549 13.3139 9.78549C13.1695 9.78549 13.0347 9.83548 12.9236 9.92075L12.9262 9.91879C12.8352 10.0462 12.78 10.2109 12.78 10.3883C12.78 10.4236 12.7818 10.4569 12.7862 10.4912V10.4873C12.7625 10.795 12.7485 11.1528 12.7485 11.5144C12.7485 11.6311 12.7503 11.7467 12.7529 11.8624V11.8457V12.9817C12.7617 13.0277 12.7669 13.0806 12.7669 13.1346C12.7669 13.3717 12.6707 13.5835 12.5201 13.7236L12.5193 13.7246C12.1806 13.8981 11.785 14 11.3676 14C11.2783 14 11.1908 13.9951 11.1041 13.9863L11.1155 13.9873C9.73804 13.9579 8.46033 13.506 7.37427 12.7445L7.4049 12.7641C6.08256 11.8643 4.98687 10.6931 4.15198 9.30916L4.12836 9.26799C3.33547 8.08989 2.59597 6.75889 1.96587 5.35536L1.90461 5.20442C1.53617 4.41837 1.15461 3.45197 0.825554 2.45813L0.773046 2.27681C0.639148 1.82988 0.542007 1.31042 0.50175 0.772333L0.5 0.74783C0.5 0.252544 0.76021 0.0049007 1.28063 0.0049007H3.58226C3.60327 0.00294046 3.62777 0.00196009 3.65315 0.00196009C3.87019 0.00196009 4.0706 0.0852702 4.229 0.225427L4.22725 0.223467C4.40228 0.438113 4.5318 0.701764 4.59568 0.995799L4.59831 1.00756C5.02188 2.34738 5.47083 3.47256 5.98716 4.55069L5.92853 4.41641C6.35035 5.36712 6.8168 6.18552 7.34889 6.94119L7.32876 6.91081C7.79551 7.55246 8.15957 7.87328 8.42094 7.87328C8.42882 7.87426 8.43845 7.87426 8.44895 7.87426C8.57847 7.87426 8.69136 7.79585 8.75262 7.67824L8.7535 7.67628C8.81826 7.49006 8.85589 7.27345 8.85589 7.04803C8.85589 7 8.85414 6.95197 8.85064 6.90493V6.91081V3.10893C8.83226 2.66102 8.73425 2.24251 8.57059 1.86712L8.5776 1.88575C8.46908 1.62699 8.33868 1.40353 8.18378 1.20456L8.18641 1.20848C8.04288 1.04775 7.94487 0.83702 7.91424 0.601792L7.91336 0.595911C7.91336 0.429291 7.98162 0.279333 8.08839 0.181322L8.08926 0.180342C8.19516 0.0715486 8.33693 0.00588075 8.49183 0.00588075H8.49883H12.1272C12.1464 0.00294039 12.1683 0.00196009 12.1911 0.00196009C12.3617 0.00196009 12.5149 0.0882107 12.6164 0.223467L12.6173 0.224447C12.7074 0.408709 12.7608 0.629236 12.7608 0.862504C12.7608 0.899748 12.759 0.936012 12.7564 0.972277V0.967376V6.03752C12.7547 6.06105 12.7538 6.08849 12.7538 6.11593C12.7538 6.29628 12.7984 6.46584 12.8754 6.60991L12.8737 6.60599C12.9376 6.71184 13.0443 6.78045 13.1651 6.78045C13.3191 6.76869 13.46 6.71184 13.5782 6.62167L13.5756 6.62363C13.8136 6.44035 14.0184 6.23159 14.196 5.99538L14.1995 5.99048C14.7307 5.31812 15.2208 4.57519 15.6479 3.78521L15.682 3.71661C15.9831 3.15794 16.3086 2.4699 16.6036 1.76323L16.6578 1.61915L17.0481 0.744889C17.1838 0.307757 17.5478 0 17.9758 0C17.9924 0 18.009 -7.10847e-08 18.0257 0.000980047H18.023H20.3256C20.9475 0.000980047 21.1809 0.321478 21.0257 0.962475H21.0248Z" fill="#6398FD"/>
</svg>
